<?xml version="1.0" encoding="utf-8" standalone="no"?>
<!DOCTYPE svg PUBLIC "-//W3C//DTD SVG 1.1//EN"
  "http://www.w3.org/Graphics/SVG/1.1/DTD/svg11.dtd">
<!-- Created with matplotlib (http://matplotlib.org/) -->
<svg height="468pt" version="1.1" viewBox="0 0 648 468" width="648pt" xmlns="http://www.w3.org/2000/svg" xmlns:xlink="http://www.w3.org/1999/xlink">
 <defs>
  <style type="text/css">
*{stroke-linecap:butt;stroke-linejoin:round;}
  </style>
 </defs>
 <g id="figure_1">
  <g id="patch_1">
   <path d="M 0 468 
L 648 468 
L 648 0 
L 0 0 
z
" style="fill:#ffffff;"/>
  </g>
  <g id="axes_1">
   <g id="patch_2">
    <path d="M 102.530313 168.10187 
L 620.74 168.10187 
L 620.74 27.26 
L 102.530313 27.26 
z
" style="fill:#ffffff;"/>
   </g>
   <g id="matplotlib.axis_1">
    <g id="xtick_1">
     <g id="line2d_1">
      <defs>
       <path d="M 0 0 
L 0 3.5 
" id="m727647137c" style="stroke:#000000;stroke-width:0.8;"/>
      </defs>
      <g>
       <use style="stroke:#000000;stroke-width:0.8;" x="126.085298" xlink:href="#m727647137c" y="168.10187"/>
      </g>
     </g>
     <g id="text_1">
      <!-- 0 -->
      <defs>
       <path d="M 31.78125 66.40625 
Q 24.171875 66.40625 20.328125 58.90625 
Q 16.5 51.421875 16.5 36.375 
Q 16.5 21.390625 20.328125 13.890625 
Q 24.171875 6.390625 31.78125 6.390625 
Q 39.453125 6.390625 43.28125 13.890625 
Q 47.125 21.390625 47.125 36.375 
Q 47.125 51.421875 43.28125 58.90625 
Q 39.453125 66.40625 31.78125 66.40625 
z
M 31.78125 74.21875 
Q 44.046875 74.21875 50.515625 64.515625 
Q 56.984375 54.828125 56.984375 36.375 
Q 56.984375 17.96875 50.515625 8.265625 
Q 44.046875 -1.421875 31.78125 -1.421875 
Q 19.53125 -1.421875 13.0625 8.265625 
Q 6.59375 17.96875 6.59375 36.375 
Q 6.59375 54.828125 13.0625 64.515625 
Q 19.53125 74.21875 31.78125 74.21875 
z
" id="DejaVuSans-30"/>
      </defs>
      <g transform="translate(119.086548 191.818433)scale(0.22 -0.22)">
       <use xlink:href="#DejaVuSans-30"/>
      </g>
     </g>
    </g>
    <g id="xtick_2">
     <g id="line2d_2">
      <g>
       <use style="stroke:#000000;stroke-width:0.8;" x="221.256958" xlink:href="#m727647137c" y="168.10187"/>
      </g>
     </g>
     <g id="text_2">
      <!-- 20 -->
      <defs>
       <path d="M 19.1875 8.296875 
L 53.609375 8.296875 
L 53.609375 0 
L 7.328125 0 
L 7.328125 8.296875 
Q 12.9375 14.109375 22.625 23.890625 
Q 32.328125 33.6875 34.8125 36.53125 
Q 39.546875 41.84375 41.421875 45.53125 
Q 43.3125 49.21875 43.3125 52.78125 
Q 43.3125 58.59375 39.234375 62.25 
Q 35.15625 65.921875 28.609375 65.921875 
Q 23.96875 65.921875 18.8125 64.3125 
Q 13.671875 62.703125 7.8125 59.421875 
L 7.8125 69.390625 
Q 13.765625 71.78125 18.9375 73 
Q 24.125 74.21875 28.421875 74.21875 
Q 39.75 74.21875 46.484375 68.546875 
Q 53.21875 62.890625 53.21875 53.421875 
Q 53.21875 48.921875 51.53125 44.890625 
Q 49.859375 40.875 45.40625 35.40625 
Q 44.1875 33.984375 37.640625 27.21875 
Q 31.109375 20.453125 19.1875 8.296875 
z
" id="DejaVuSans-32"/>
      </defs>
      <g transform="translate(207.259458 191.818433)scale(0.22 -0.22)">
       <use xlink:href="#DejaVuSans-32"/>
       <use x="63.623047" xlink:href="#DejaVuSans-30"/>
      </g>
     </g>
    </g>
    <g id="xtick_3">
     <g id="line2d_3">
      <g>
       <use style="stroke:#000000;stroke-width:0.8;" x="316.428618" xlink:href="#m727647137c" y="168.10187"/>
      </g>
     </g>
     <g id="text_3">
      <!-- 40 -->
      <defs>
       <path d="M 37.796875 64.3125 
L 12.890625 25.390625 
L 37.796875 25.390625 
z
M 35.203125 72.90625 
L 47.609375 72.90625 
L 47.609375 25.390625 
L 58.015625 25.390625 
L 58.015625 17.1875 
L 47.609375 17.1875 
L 47.609375 0 
L 37.796875 0 
L 37.796875 17.1875 
L 4.890625 17.1875 
L 4.890625 26.703125 
z
" id="DejaVuSans-34"/>
      </defs>
      <g transform="translate(302.431118 191.818433)scale(0.22 -0.22)">
       <use xlink:href="#DejaVuSans-34"/>
       <use x="63.623047" xlink:href="#DejaVuSans-30"/>
      </g>
     </g>
    </g>
    <g id="xtick_4">
     <g id="line2d_4">
      <g>
       <use style="stroke:#000000;stroke-width:0.8;" x="411.600278" xlink:href="#m727647137c" y="168.10187"/>
      </g>
     </g>
     <g id="text_4">
      <!-- 60 -->
      <defs>
       <path d="M 33.015625 40.375 
Q 26.375 40.375 22.484375 35.828125 
Q 18.609375 31.296875 18.609375 23.390625 
Q 18.609375 15.53125 22.484375 10.953125 
Q 26.375 6.390625 33.015625 6.390625 
Q 39.65625 6.390625 43.53125 10.953125 
Q 47.40625 15.53125 47.40625 23.390625 
Q 47.40625 31.296875 43.53125 35.828125 
Q 39.65625 40.375 33.015625 40.375 
z
M 52.59375 71.296875 
L 52.59375 62.3125 
Q 48.875 64.0625 45.09375 64.984375 
Q 41.3125 65.921875 37.59375 65.921875 
Q 27.828125 65.921875 22.671875 59.328125 
Q 17.53125 52.734375 16.796875 39.40625 
Q 19.671875 43.65625 24.015625 45.921875 
Q 28.375 48.1875 33.59375 48.1875 
Q 44.578125 48.1875 50.953125 41.515625 
Q 57.328125 34.859375 57.328125 23.390625 
Q 57.328125 12.15625 50.6875 5.359375 
Q 44.046875 -1.421875 33.015625 -1.421875 
Q 20.359375 -1.421875 13.671875 8.265625 
Q 6.984375 17.96875 6.984375 36.375 
Q 6.984375 53.65625 15.1875 63.9375 
Q 23.390625 74.21875 37.203125 74.21875 
Q 40.921875 74.21875 44.703125 73.484375 
Q 48.484375 72.75 52.59375 71.296875 
z
" id="DejaVuSans-36"/>
      </defs>
      <g transform="translate(397.602778 191.818433)scale(0.22 -0.22)">
       <use xlink:href="#DejaVuSans-36"/>
       <use x="63.623047" xlink:href="#DejaVuSans-30"/>
      </g>
     </g>
    </g>
    <g id="xtick_5">
     <g id="line2d_5">
      <g>
       <use style="stroke:#000000;stroke-width:0.8;" x="506.771937" xlink:href="#m727647137c" y="168.10187"/>
      </g>
     </g>
     <g id="text_5">
      <!-- 80 -->
      <defs>
       <path d="M 31.78125 34.625 
Q 24.75 34.625 20.71875 30.859375 
Q 16.703125 27.09375 16.703125 20.515625 
Q 16.703125 13.921875 20.71875 10.15625 
Q 24.75 6.390625 31.78125 6.390625 
Q 38.8125 6.390625 42.859375 10.171875 
Q 46.921875 13.96875 46.921875 20.515625 
Q 46.921875 27.09375 42.890625 30.859375 
Q 38.875 34.625 31.78125 34.625 
z
M 21.921875 38.8125 
Q 15.578125 40.375 12.03125 44.71875 
Q 8.5 49.078125 8.5 55.328125 
Q 8.5 64.0625 14.71875 69.140625 
Q 20.953125 74.21875 31.78125 74.21875 
Q 42.671875 74.21875 48.875 69.140625 
Q 55.078125 64.0625 55.078125 55.328125 
Q 55.078125 49.078125 51.53125 44.71875 
Q 48 40.375 41.703125 38.8125 
Q 48.828125 37.15625 52.796875 32.3125 
Q 56.78125 27.484375 56.78125 20.515625 
Q 56.78125 9.90625 50.3125 4.234375 
Q 43.84375 -1.421875 31.78125 -1.421875 
Q 19.734375 -1.421875 13.25 4.234375 
Q 6.78125 9.90625 6.78125 20.515625 
Q 6.78125 27.484375 10.78125 32.3125 
Q 14.796875 37.15625 21.921875 38.8125 
z
M 18.3125 54.390625 
Q 18.3125 48.734375 21.84375 45.5625 
Q 25.390625 42.390625 31.78125 42.390625 
Q 38.140625 42.390625 41.71875 45.5625 
Q 45.3125 48.734375 45.3125 54.390625 
Q 45.3125 60.0625 41.71875 63.234375 
Q 38.140625 66.40625 31.78125 66.40625 
Q 25.390625 66.40625 21.84375 63.234375 
Q 18.3125 60.0625 18.3125 54.390625 
z
" id="DejaVuSans-38"/>
      </defs>
      <g transform="translate(492.774437 191.818433)scale(0.22 -0.22)">
       <use xlink:href="#DejaVuSans-38"/>
       <use x="63.623047" xlink:href="#DejaVuSans-30"/>
      </g>
     </g>
    </g>
    <g id="xtick_6">
     <g id="line2d_6">
      <g>
       <use style="stroke:#000000;stroke-width:0.8;" x="601.943597" xlink:href="#m727647137c" y="168.10187"/>
      </g>
     </g>
     <g id="text_6">
      <!-- 100 -->
      <defs>
       <path d="M 12.40625 8.296875 
L 28.515625 8.296875 
L 28.515625 63.921875 
L 10.984375 60.40625 
L 10.984375 69.390625 
L 28.421875 72.90625 
L 38.28125 72.90625 
L 38.28125 8.296875 
L 54.390625 8.296875 
L 54.390625 0 
L 12.40625 0 
z
" id="DejaVuSans-31"/>
      </defs>
      <g transform="translate(580.947347 191.818433)scale(0.22 -0.22)">
       <use xlink:href="#DejaVuSans-31"/>
       <use x="63.623047" xlink:href="#DejaVuSans-30"/>
       <use x="127.246094" xlink:href="#DejaVuSans-30"/>
      </g>
     </g>
    </g>
    <g id="text_7">
     <!-- time step -->
     <defs>
      <path d="M 18.3125 70.21875 
L 18.3125 54.6875 
L 36.8125 54.6875 
L 36.8125 47.703125 
L 18.3125 47.703125 
L 18.3125 18.015625 
Q 18.3125 11.328125 20.140625 9.421875 
Q 21.96875 7.515625 27.59375 7.515625 
L 36.8125 7.515625 
L 36.8125 0 
L 27.59375 0 
Q 17.1875 0 13.234375 3.875 
Q 9.28125 7.765625 9.28125 18.015625 
L 9.28125 47.703125 
L 2.6875 47.703125 
L 2.6875 54.6875 
L 9.28125 54.6875 
L 9.28125 70.21875 
z
" id="DejaVuSans-74"/>
      <path d="M 9.421875 54.6875 
L 18.40625 54.6875 
L 18.40625 0 
L 9.421875 0 
z
M 9.421875 75.984375 
L 18.40625 75.984375 
L 18.40625 64.59375 
L 9.421875 64.59375 
z
" id="DejaVuSans-69"/>
      <path d="M 52 44.1875 
Q 55.375 50.25 60.0625 53.125 
Q 64.75 56 71.09375 56 
Q 79.640625 56 84.28125 50.015625 
Q 88.921875 44.046875 88.921875 33.015625 
L 88.921875 0 
L 79.890625 0 
L 79.890625 32.71875 
Q 79.890625 40.578125 77.09375 44.375 
Q 74.3125 48.1875 68.609375 48.1875 
Q 61.625 48.1875 57.5625 43.546875 
Q 53.515625 38.921875 53.515625 30.90625 
L 53.515625 0 
L 44.484375 0 
L 44.484375 32.71875 
Q 44.484375 40.625 41.703125 44.40625 
Q 38.921875 48.1875 33.109375 48.1875 
Q 26.21875 48.1875 22.15625 43.53125 
Q 18.109375 38.875 18.109375 30.90625 
L 18.109375 0 
L 9.078125 0 
L 9.078125 54.6875 
L 18.109375 54.6875 
L 18.109375 46.1875 
Q 21.1875 51.21875 25.484375 53.609375 
Q 29.78125 56 35.6875 56 
Q 41.65625 56 45.828125 52.96875 
Q 50 49.953125 52 44.1875 
z
" id="DejaVuSans-6d"/>
      <path d="M 56.203125 29.59375 
L 56.203125 25.203125 
L 14.890625 25.203125 
Q 15.484375 15.921875 20.484375 11.0625 
Q 25.484375 6.203125 34.421875 6.203125 
Q 39.59375 6.203125 44.453125 7.46875 
Q 49.3125 8.734375 54.109375 11.28125 
L 54.109375 2.78125 
Q 49.265625 0.734375 44.1875 -0.34375 
Q 39.109375 -1.421875 33.890625 -1.421875 
Q 20.796875 -1.421875 13.15625 6.1875 
Q 5.515625 13.8125 5.515625 26.8125 
Q 5.515625 40.234375 12.765625 48.109375 
Q 20.015625 56 32.328125 56 
Q 43.359375 56 49.78125 48.890625 
Q 56.203125 41.796875 56.203125 29.59375 
z
M 47.21875 32.234375 
Q 47.125 39.59375 43.09375 43.984375 
Q 39.0625 48.390625 32.421875 48.390625 
Q 24.90625 48.390625 20.390625 44.140625 
Q 15.875 39.890625 15.1875 32.171875 
z
" id="DejaVuSans-65"/>
      <path id="DejaVuSans-20"/>
      <path d="M 44.28125 53.078125 
L 44.28125 44.578125 
Q 40.484375 46.53125 36.375 47.5 
Q 32.28125 48.484375 27.875 48.484375 
Q 21.1875 48.484375 17.84375 46.4375 
Q 14.5 44.390625 14.5 40.28125 
Q 14.5 37.15625 16.890625 35.375 
Q 19.28125 33.59375 26.515625 31.984375 
L 29.59375 31.296875 
Q 39.15625 29.25 43.1875 25.515625 
Q 47.21875 21.78125 47.21875 15.09375 
Q 47.21875 7.46875 41.1875 3.015625 
Q 35.15625 -1.421875 24.609375 -1.421875 
Q 20.21875 -1.421875 15.453125 -0.5625 
Q 10.6875 0.296875 5.421875 2 
L 5.421875 11.28125 
Q 10.40625 8.6875 15.234375 7.390625 
Q 20.0625 6.109375 24.8125 6.109375 
Q 31.15625 6.109375 34.5625 8.28125 
Q 37.984375 10.453125 37.984375 14.40625 
Q 37.984375 18.0625 35.515625 20.015625 
Q 33.0625 21.96875 24.703125 23.78125 
L 21.578125 24.515625 
Q 13.234375 26.265625 9.515625 29.90625 
Q 5.8125 33.546875 5.8125 39.890625 
Q 5.8125 47.609375 11.28125 51.796875 
Q 16.75 56 26.8125 56 
Q 31.78125 56 36.171875 55.265625 
Q 40.578125 54.546875 44.28125 53.078125 
z
" id="DejaVuSans-73"/>
      <path d="M 18.109375 8.203125 
L 18.109375 -20.796875 
L 9.078125 -20.796875 
L 9.078125 54.6875 
L 18.109375 54.6875 
L 18.109375 46.390625 
Q 20.953125 51.265625 25.265625 53.625 
Q 29.59375 56 35.59375 56 
Q 45.5625 56 51.78125 48.09375 
Q 58.015625 40.1875 58.015625 27.296875 
Q 58.015625 14.40625 51.78125 6.484375 
Q 45.5625 -1.421875 35.59375 -1.421875 
Q 29.59375 -1.421875 25.265625 0.953125 
Q 20.953125 3.328125 18.109375 8.203125 
z
M 48.6875 27.296875 
Q 48.6875 37.203125 44.609375 42.84375 
Q 40.53125 48.484375 33.40625 48.484375 
Q 26.265625 48.484375 22.1875 42.84375 
Q 18.109375 37.203125 18.109375 27.296875 
Q 18.109375 17.390625 22.1875 11.75 
Q 26.265625 6.109375 33.40625 6.109375 
Q 40.53125 6.109375 44.609375 11.75 
Q 48.6875 17.390625 48.6875 27.296875 
z
" id="DejaVuSans-70"/>
     </defs>
     <g transform="translate(309.493438 217.110308)scale(0.22 -0.22)">
      <use xlink:href="#DejaVuSans-74"/>
      <use x="39.208984" xlink:href="#DejaVuSans-69"/>
      <use x="66.992188" xlink:href="#DejaVuSans-6d"/>
      <use x="164.404297" xlink:href="#DejaVuSans-65"/>
      <use x="225.927734" xlink:href="#DejaVuSans-20"/>
      <use x="257.714844" xlink:href="#DejaVuSans-73"/>
      <use x="309.814453" xlink:href="#DejaVuSans-74"/>
      <use x="349.023438" xlink:href="#DejaVuSans-65"/>
      <use x="410.546875" xlink:href="#DejaVuSans-70"/>
     </g>
    </g>
   </g>
   <g id="matplotlib.axis_2">
    <g id="ytick_1">
     <g id="line2d_7">
      <defs>
       <path d="M 0 0 
L -3.5 0 
" id="mbcf8f227ca" style="stroke:#000000;stroke-width:0.8;"/>
      </defs>
      <g>
       <use style="stroke:#000000;stroke-width:0.8;" x="102.530313" xlink:href="#mbcf8f227ca" y="160.945521"/>
      </g>
     </g>
     <g id="text_8">
      <!-- −10 -->
      <defs>
       <path d="M 10.59375 35.5 
L 73.1875 35.5 
L 73.1875 27.203125 
L 10.59375 27.203125 
z
" id="DejaVuSans-2212"/>
      </defs>
      <g transform="translate(49.1 169.303803)scale(0.22 -0.22)">
       <use xlink:href="#DejaVuSans-2212"/>
       <use x="83.789062" xlink:href="#DejaVuSans-31"/>
       <use x="147.412109" xlink:href="#DejaVuSans-30"/>
      </g>
     </g>
    </g>
    <g id="ytick_2">
     <g id="line2d_8">
      <g>
       <use style="stroke:#000000;stroke-width:0.8;" x="102.530313" xlink:href="#mbcf8f227ca" y="71.492187"/>
      </g>
     </g>
     <g id="text_9">
      <!-- 0 -->
      <g transform="translate(81.532813 79.850469)scale(0.22 -0.22)">
       <use xlink:href="#DejaVuSans-30"/>
      </g>
     </g>
    </g>
    <g id="text_10">
     <!-- $I_p / I_d$ -->
     <defs>
      <path d="M 51.203125 66.203125 
L 50.203125 58.796875 
L 39.09375 58.796875 
L 26.296875 7.40625 
L 37.40625 7.40625 
L 34.703125 0 
L 5.90625 0 
L 6.296875 7.40625 
L 17.40625 7.40625 
L 30.203125 58.796875 
L 19.09375 58.796875 
L 22.40625 66.203125 
z
" id="STIXGeneral-Italic-1d610"/>
      <path d="M 25.59375 45.90625 
L 24.5 40.90625 
Q 31.40625 46.296875 39.59375 46.296875 
Q 46.09375 46.296875 49.9375 42.140625 
Q 53.796875 38 53.796875 30.703125 
Q 53.796875 18.40625 44.546875 8.703125 
Q 35.296875 -1 25 -1 
Q 19.40625 -1 15.203125 2.59375 
L 9.796875 -19.203125 
L 2.203125 -21.59375 
L 1.40625 -21.09375 
L 17.59375 44 
L 24.90625 46.40625 
z
M 21.90625 29.5 
L 17.59375 12.296875 
Q 19.90625 6.09375 26.40625 6.09375 
Q 34 6.09375 39.75 12.84375 
Q 45.5 19.59375 45.5 28.40625 
Q 45.5 33.203125 43 36.203125 
Q 40.5 39.203125 35.796875 39.203125 
Q 32.296875 39.203125 28.5 36.546875 
Q 24.703125 33.90625 21.90625 29.5 
z
" id="STIXGeneral-Italic-1d631"/>
      <path d="M 28.703125 67.59375 
L 5.90625 -1.40625 
L -0.90625 -1.40625 
L 22 67.59375 
z
" id="STIXGeneral-Regular-2f"/>
      <path d="M 60 67.90625 
L 46.203125 12.796875 
Q 44.59375 6.203125 44 1.296875 
L 36.203125 -1.09375 
L 35.40625 -0.59375 
L 36.40625 4.40625 
Q 29.5 -1 21.40625 -1 
Q 14.90625 -1 11.046875 3.046875 
Q 7.203125 7.09375 7.203125 14.40625 
Q 7.203125 26.90625 16.390625 36.59375 
Q 25.59375 46.296875 36 46.296875 
Q 41.5 46.296875 45.796875 42.59375 
L 51.59375 66 
L 59.203125 68.40625 
z
M 39.09375 15.796875 
L 43.40625 32.90625 
Q 40.703125 39.203125 34.59375 39.203125 
Q 28.09375 39.203125 21.796875 32.640625 
Q 15.5 26.09375 15.5 16.796875 
Q 15.5 11.5 18.140625 8.796875 
Q 20.796875 6.09375 25.203125 6.09375 
Q 28.703125 6.09375 32.5 8.75 
Q 36.296875 11.40625 39.09375 15.796875 
z
" id="STIXGeneral-Italic-1d625"/>
     </defs>
     <g transform="translate(38.72 117.700935)rotate(-90)scale(0.22 -0.22)">
      <use transform="translate(0 0.40625)" xlink:href="#STIXGeneral-Italic-1d610"/>
      <use transform="translate(40.099991 -13.182812)scale(0.7)" xlink:href="#STIXGeneral-Italic-1d631"/>
      <use transform="translate(77.224826 0.40625)" xlink:href="#STIXGeneral-Regular-2f"/>
      <use transform="translate(105.024814 0.40625)" xlink:href="#STIXGeneral-Italic-1d610"/>
      <use transform="translate(145.124805 -13.182812)scale(0.7)" xlink:href="#STIXGeneral-Italic-1d625"/>
     </g>
    </g>
   </g>
   <g id="line2d_9">
    <path clip-path="url(#p40d49f197d)" d="M 126.085298 71.492187 
L 130.843881 63.421734 
L 135.602464 59.123623 
L 140.361047 60.197121 
L 145.11963 65.166882 
L 149.878213 70.37972 
L 154.636796 72.17311 
L 159.395379 69.044042 
L 164.153962 62.546854 
L 168.912545 56.39343 
L 173.671128 54.282444 
L 178.429711 57.729109 
L 183.188294 65.166882 
L 187.946877 72.847732 
L 192.70546 77.01429 
L 197.464043 76.072345 
L 202.222626 71.492187 
L 206.981209 66.91203 
L 211.739792 65.970085 
L 216.498375 70.136642 
L 221.256958 77.817493 
L 226.015541 85.255266 
L 230.774124 88.701931 
L 235.532707 86.590945 
L 240.29129 80.437521 
L 245.049873 73.940333 
L 249.808456 70.811264 
L 254.567039 72.604654 
L 259.325622 77.817493 
L 264.084205 82.787254 
L 268.842788 83.860752 
L 273.601371 79.562641 
L 278.359954 71.492187 
L 283.118537 63.421734 
L 287.87712 59.123623 
L 292.635703 60.197121 
L 297.394286 65.166882 
L 302.152869 70.37972 
L 306.911452 72.17311 
L 311.670035 69.044042 
L 316.428618 62.546854 
L 321.187201 56.39343 
L 325.945784 54.282444 
L 330.704367 57.729109 
L 335.46295 65.166882 
L 340.221533 72.847732 
L 344.980116 77.01429 
L 349.738699 76.072345 
L 354.497282 71.492187 
L 359.255865 66.91203 
L 364.014448 65.970085 
L 368.773031 70.136642 
L 373.531614 77.817493 
L 378.290197 85.255266 
L 383.04878 88.701931 
L 387.807363 86.590945 
L 392.565946 80.437521 
L 397.324529 73.940333 
L 402.083112 70.811264 
L 406.841695 72.604654 
L 411.600278 77.817493 
L 416.358861 82.787254 
L 421.117444 83.860752 
L 425.876027 79.562641 
L 430.63461 71.492187 
L 435.393193 63.421734 
L 440.151776 59.123623 
L 444.910359 60.197121 
L 449.668942 65.166882 
L 454.427525 70.37972 
L 459.186108 72.17311 
L 463.944691 69.044042 
L 468.703274 62.546854 
L 473.461856 56.39343 
L 478.220439 54.282444 
L 482.979022 57.729109 
L 487.737605 65.166882 
L 492.496188 72.847732 
L 497.254771 77.01429 
L 502.013354 76.072345 
L 506.771937 71.492187 
L 511.53052 66.91203 
L 516.289103 65.970085 
L 521.047686 70.136642 
L 525.806269 77.817493 
L 530.564852 85.255266 
L 535.323435 88.701931 
L 540.082018 86.590945 
L 544.840601 80.437521 
L 549.599184 73.940333 
L 554.357767 70.811264 
L 559.11635 72.604654 
L 563.874933 77.817493 
L 568.633516 82.787254 
L 573.392099 83.860752 
L 578.150682 79.562641 
L 582.909265 71.492187 
L 587.667848 63.421734 
L 592.426431 59.123623 
L 597.185014 60.197121 
" style="fill:none;stroke:#1f77b4;stroke-linecap:square;stroke-width:2;"/>
   </g>
   <g id="line2d_10">
    <path clip-path="url(#p40d49f197d)" d="M 126.085298 71.492187 
L 130.843881 71.492187 
L 135.602464 71.491952 
L 140.361047 49.411644 
L 145.11963 77.047386 
L 149.878213 33.661903 
L 154.636796 161.699967 
L 159.395379 62.050419 
L 164.153962 61.054384 
L 168.912545 68.92814 
L 173.671128 37.579826 
L 178.429711 83.410133 
L 183.188294 70.821498 
L 187.946877 136.526687 
L 192.70546 35.732167 
L 197.464043 81.400971 
L 202.222626 72.537158 
L 206.981209 78.330688 
L 211.739792 78.113665 
L 216.498375 77.038513 
L 221.256958 76.080895 
L 226.015541 72.302999 
L 230.774124 72.912391 
L 235.532707 70.697322 
L 240.29129 71.750179 
L 245.049873 72.238203 
L 249.808456 71.827753 
L 254.567039 71.812069 
L 259.325622 71.415806 
L 264.084205 71.743649 
L 268.842788 71.598735 
L 273.601371 71.558353 
L 278.359954 71.268795 
L 283.118537 71.536278 
L 287.87712 71.412593 
L 292.635703 57.140093 
L 297.394286 65.868688 
L 302.152869 42.11765 
L 306.911452 99.420669 
L 311.670035 100.871151 
L 316.428618 54.790411 
L 321.187201 60.328194 
L 325.945784 35.3996 
L 330.704367 66.861895 
L 335.46295 65.529925 
L 340.221533 69.44816 
L 344.980116 82.693637 
L 349.738699 88.741438 
L 354.497282 52.141696 
L 359.255865 66.689743 
L 364.014448 75.85169 
L 368.773031 80.655462 
L 373.531614 87.39163 
L 378.290197 76.371787 
L 383.04878 67.974624 
L 387.807363 67.653943 
L 392.565946 72.271879 
L 397.324529 74.025498 
L 402.083112 73.357012 
L 406.841695 71.151287 
L 411.600278 70.299734 
L 416.358861 71.560483 
L 421.117444 71.985694 
L 425.876027 71.958934 
L 430.63461 71.68546 
L 435.393193 71.50699 
L 440.151776 71.279021 
L 444.910359 58.962082 
L 449.668942 61.27051 
L 454.427525 46.504034 
L 459.186108 90.200645 
L 463.944691 95.769795 
L 468.703274 52.593853 
L 473.461856 60.353114 
L 478.220439 44.972456 
L 482.979022 63.824866 
L 487.737605 63.617096 
L 492.496188 68.951369 
L 497.254771 77.142729 
L 502.013354 87.695985 
L 506.771937 51.683115 
L 511.53052 66.09571 
L 516.289103 76.784328 
L 521.047686 79.637354 
L 525.806269 86.406463 
L 530.564852 77.095201 
L 535.323435 68.042325 
L 540.082018 67.310683 
L 544.840601 72.11792 
L 549.599184 74.019725 
L 554.357767 73.465702 
L 559.11635 71.445476 
L 563.874933 69.921676 
L 568.633516 71.294117 
L 573.392099 71.980849 
L 578.150682 72.219427 
L 582.909265 71.825467 
L 587.667848 71.515208 
L 592.426431 71.18812 
L 597.185014 62.28969 
" style="fill:none;stroke:#ff7f0e;stroke-linecap:square;stroke-width:2;"/>
   </g>
   <g id="patch_3">
    <path d="M 102.530313 168.10187 
L 102.530313 27.26 
" style="fill:none;stroke:#000000;stroke-linecap:square;stroke-linejoin:miter;stroke-width:0.8;"/>
   </g>
   <g id="patch_4">
    <path d="M 620.74 168.10187 
L 620.74 27.26 
" style="fill:none;stroke:#000000;stroke-linecap:square;stroke-linejoin:miter;stroke-width:0.8;"/>
   </g>
   <g id="patch_5">
    <path d="M 102.530313 168.10187 
L 620.74 168.10187 
" style="fill:none;stroke:#000000;stroke-linecap:square;stroke-linejoin:miter;stroke-width:0.8;"/>
   </g>
   <g id="patch_6">
    <path d="M 102.530313 27.26 
L 620.74 27.26 
" style="fill:none;stroke:#000000;stroke-linecap:square;stroke-linejoin:miter;stroke-width:0.8;"/>
   </g>
   <g id="legend_1">
    <g id="patch_7">
     <path d="M 117.930313 157.10187 
L 205.490313 157.10187 
Q 209.890313 157.10187 209.890313 152.70187 
L 209.890313 88.513433 
Q 209.890313 84.113433 205.490313 84.113433 
L 117.930313 84.113433 
Q 113.530313 84.113433 113.530313 88.513433 
L 113.530313 152.70187 
Q 113.530313 157.10187 117.930313 157.10187 
z
" style="fill:#ffffff;opacity:0.8;stroke:#cccccc;stroke-linejoin:miter;"/>
    </g>
    <g id="line2d_11">
     <path d="M 122.330313 101.929995 
L 166.330313 101.929995 
" style="fill:none;stroke:#1f77b4;stroke-linecap:square;stroke-width:2;"/>
    </g>
    <g id="line2d_12"/>
    <g id="text_11">
     <!-- $I_d$ -->
     <g transform="translate(183.930313 109.629995)scale(0.22 -0.22)">
      <use transform="translate(0 0.796875)" xlink:href="#STIXGeneral-Italic-1d610"/>
      <use transform="translate(40.099991 -12.792187)scale(0.7)" xlink:href="#STIXGeneral-Italic-1d625"/>
     </g>
    </g>
    <g id="line2d_13">
     <path d="M 122.330313 134.22187 
L 166.330313 134.22187 
" style="fill:none;stroke:#ff7f0e;stroke-linecap:square;stroke-width:2;"/>
    </g>
    <g id="line2d_14"/>
    <g id="text_12">
     <!-- $I_p$ -->
     <g transform="translate(183.930313 141.92187)scale(0.22 -0.22)">
      <use transform="translate(0 0.796875)" xlink:href="#STIXGeneral-Italic-1d610"/>
      <use transform="translate(40.099991 -12.792187)scale(0.7)" xlink:href="#STIXGeneral-Italic-1d631"/>
     </g>
    </g>
   </g>
  </g>
  <g id="axes_2">
   <g id="patch_8">
    <path d="M 102.530313 390.65625 
L 620.74 390.65625 
L 620.74 249.81438 
L 102.530313 249.81438 
z
" style="fill:#ffffff;"/>
   </g>
   <g id="matplotlib.axis_3">
    <g id="xtick_7">
     <g id="line2d_15">
      <g>
       <use style="stroke:#000000;stroke-width:0.8;" x="126.085298" xlink:href="#m727647137c" y="390.65625"/>
      </g>
     </g>
     <g id="text_13">
      <!-- $\mathdefault{−1.0}$ -->
      <defs>
       <path d="M 10.6875 12.40625 
L 21 12.40625 
L 21 0 
L 10.6875 0 
z
" id="DejaVuSans-2e"/>
      </defs>
      <g transform="translate(99.355298 414.372812)scale(0.22 -0.22)">
       <use transform="translate(0 0.78125)" xlink:href="#DejaVuSans-2212"/>
       <use transform="translate(83.789062 0.78125)" xlink:href="#DejaVuSans-31"/>
       <use transform="translate(147.412109 0.78125)" xlink:href="#DejaVuSans-2e"/>
       <use transform="translate(179.199219 0.78125)" xlink:href="#DejaVuSans-30"/>
      </g>
     </g>
    </g>
    <g id="xtick_8">
     <g id="line2d_16">
      <g>
       <use style="stroke:#000000;stroke-width:0.8;" x="221.256958" xlink:href="#m727647137c" y="390.65625"/>
      </g>
     </g>
     <g id="text_14">
      <!-- $\mathdefault{−0.8}$ -->
      <g transform="translate(194.526958 414.372812)scale(0.22 -0.22)">
       <use transform="translate(0 0.78125)" xlink:href="#DejaVuSans-2212"/>
       <use transform="translate(83.789062 0.78125)" xlink:href="#DejaVuSans-30"/>
       <use transform="translate(147.412109 0.78125)" xlink:href="#DejaVuSans-2e"/>
       <use transform="translate(179.167969 0.78125)" xlink:href="#DejaVuSans-38"/>
      </g>
     </g>
    </g>
    <g id="xtick_9">
     <g id="line2d_17">
      <g>
       <use style="stroke:#000000;stroke-width:0.8;" x="316.428618" xlink:href="#m727647137c" y="390.65625"/>
      </g>
     </g>
     <g id="text_15">
      <!-- $\mathdefault{−0.6}$ -->
      <g transform="translate(289.698618 414.372812)scale(0.22 -0.22)">
       <use transform="translate(0 0.78125)" xlink:href="#DejaVuSans-2212"/>
       <use transform="translate(83.789062 0.78125)" xlink:href="#DejaVuSans-30"/>
       <use transform="translate(147.412109 0.78125)" xlink:href="#DejaVuSans-2e"/>
       <use transform="translate(179.199219 0.78125)" xlink:href="#DejaVuSans-36"/>
      </g>
     </g>
    </g>
    <g id="xtick_10">
     <g id="line2d_18">
      <g>
       <use style="stroke:#000000;stroke-width:0.8;" x="411.600278" xlink:href="#m727647137c" y="390.65625"/>
      </g>
     </g>
     <g id="text_16">
      <!-- $\mathdefault{−0.4}$ -->
      <g transform="translate(384.870278 414.372812)scale(0.22 -0.22)">
       <use transform="translate(0 0.78125)" xlink:href="#DejaVuSans-2212"/>
       <use transform="translate(83.789062 0.78125)" xlink:href="#DejaVuSans-30"/>
       <use transform="translate(147.412109 0.78125)" xlink:href="#DejaVuSans-2e"/>
       <use transform="translate(179.199219 0.78125)" xlink:href="#DejaVuSans-34"/>
      </g>
     </g>
    </g>
    <g id="xtick_11">
     <g id="line2d_19">
      <g>
       <use style="stroke:#000000;stroke-width:0.8;" x="506.771937" xlink:href="#m727647137c" y="390.65625"/>
      </g>
     </g>
     <g id="text_17">
      <!-- $\mathdefault{−0.2}$ -->
      <g transform="translate(480.041937 414.372812)scale(0.22 -0.22)">
       <use transform="translate(0 0.78125)" xlink:href="#DejaVuSans-2212"/>
       <use transform="translate(83.789062 0.78125)" xlink:href="#DejaVuSans-30"/>
       <use transform="translate(147.412109 0.78125)" xlink:href="#DejaVuSans-2e"/>
       <use transform="translate(179.121094 0.78125)" xlink:href="#DejaVuSans-32"/>
      </g>
     </g>
    </g>
    <g id="xtick_12">
     <g id="line2d_20">
      <g>
       <use style="stroke:#000000;stroke-width:0.8;" x="601.943597" xlink:href="#m727647137c" y="390.65625"/>
      </g>
     </g>
     <g id="text_18">
      <!-- $\mathdefault{0.0}$ -->
      <g transform="translate(584.343597 414.372812)scale(0.22 -0.22)">
       <use transform="translate(0 0.78125)" xlink:href="#DejaVuSans-30"/>
       <use transform="translate(63.623047 0.78125)" xlink:href="#DejaVuSans-2e"/>
       <use transform="translate(95.410156 0.78125)" xlink:href="#DejaVuSans-30"/>
      </g>
     </g>
    </g>
    <g id="text_19">
     <!-- time step -->
     <g transform="translate(309.493438 439.664687)scale(0.22 -0.22)">
      <use xlink:href="#DejaVuSans-74"/>
      <use x="39.208984" xlink:href="#DejaVuSans-69"/>
      <use x="66.992188" xlink:href="#DejaVuSans-6d"/>
      <use x="164.404297" xlink:href="#DejaVuSans-65"/>
      <use x="225.927734" xlink:href="#DejaVuSans-20"/>
      <use x="257.714844" xlink:href="#DejaVuSans-73"/>
      <use x="309.814453" xlink:href="#DejaVuSans-74"/>
      <use x="349.023438" xlink:href="#DejaVuSans-65"/>
      <use x="410.546875" xlink:href="#DejaVuSans-70"/>
     </g>
    </g>
    <g id="text_20">
     <!-- $\times\mathdefault{10^{2}}\mathdefault{+3{\times}10^{6}}$ -->
     <defs>
      <path d="M 59.703125 2.203125 
L 55.09375 -2.5 
L 32 20.5 
L 8.90625 -2.5 
L 4.296875 2.09375 
L 27.296875 25.203125 
L 4.296875 48.296875 
L 9 52.90625 
L 32 29.90625 
L 55.09375 52.90625 
L 59.703125 48.40625 
L 36.703125 25.203125 
z
" id="STIXGeneral-Regular-d7"/>
      <path d="M 46 62.703125 
L 46 35.5 
L 73.1875 35.5 
L 73.1875 27.203125 
L 46 27.203125 
L 46 0 
L 37.796875 0 
L 37.796875 27.203125 
L 10.59375 27.203125 
L 10.59375 35.5 
L 37.796875 35.5 
L 37.796875 62.703125 
z
" id="DejaVuSans-2b"/>
      <path d="M 40.578125 39.3125 
Q 47.65625 37.796875 51.625 33 
Q 55.609375 28.21875 55.609375 21.1875 
Q 55.609375 10.40625 48.1875 4.484375 
Q 40.765625 -1.421875 27.09375 -1.421875 
Q 22.515625 -1.421875 17.65625 -0.515625 
Q 12.796875 0.390625 7.625 2.203125 
L 7.625 11.71875 
Q 11.71875 9.328125 16.59375 8.109375 
Q 21.484375 6.890625 26.8125 6.890625 
Q 36.078125 6.890625 40.9375 10.546875 
Q 45.796875 14.203125 45.796875 21.1875 
Q 45.796875 27.640625 41.28125 31.265625 
Q 36.765625 34.90625 28.71875 34.90625 
L 20.21875 34.90625 
L 20.21875 43.015625 
L 29.109375 43.015625 
Q 36.375 43.015625 40.234375 45.921875 
Q 44.09375 48.828125 44.09375 54.296875 
Q 44.09375 59.90625 40.109375 62.90625 
Q 36.140625 65.921875 28.71875 65.921875 
Q 24.65625 65.921875 20.015625 65.03125 
Q 15.375 64.15625 9.8125 62.3125 
L 9.8125 71.09375 
Q 15.4375 72.65625 20.34375 73.4375 
Q 25.25 74.21875 29.59375 74.21875 
Q 40.828125 74.21875 47.359375 69.109375 
Q 53.90625 64.015625 53.90625 55.328125 
Q 53.90625 49.265625 50.4375 45.09375 
Q 46.96875 40.921875 40.578125 39.3125 
z
" id="DejaVuSans-33"/>
      <path d="M 70.125 53.71875 
L 47.796875 31.296875 
L 70.125 8.984375 
L 64.3125 3.078125 
L 41.890625 25.484375 
L 19.484375 3.078125 
L 13.71875 8.984375 
L 35.984375 31.296875 
L 13.71875 53.71875 
L 19.484375 59.625 
L 41.890625 37.203125 
L 64.3125 59.625 
z
" id="DejaVuSans-d7"/>
     </defs>
     <g transform="translate(478.4 438.664687)scale(0.22 -0.22)">
      <use transform="translate(0 0.765625)" xlink:href="#STIXGeneral-Regular-d7"/>
      <use transform="translate(63.999985 0.765625)" xlink:href="#DejaVuSans-31"/>
      <use transform="translate(127.623032 0.765625)" xlink:href="#DejaVuSans-30"/>
      <use transform="translate(192.20311 39.046875)scale(0.7)" xlink:href="#DejaVuSans-32"/>
      <use transform="translate(239.473618 0.765625)" xlink:href="#DejaVuSans-2b"/>
      <use transform="translate(323.26268 0.765625)" xlink:href="#DejaVuSans-33"/>
      <use transform="translate(386.885727 0.765625)" xlink:href="#DejaVuSans-d7"/>
      <use transform="translate(470.674789 0.765625)" xlink:href="#DejaVuSans-31"/>
      <use transform="translate(534.297836 0.765625)" xlink:href="#DejaVuSans-30"/>
      <use transform="translate(598.877914 39.046875)scale(0.7)" xlink:href="#DejaVuSans-36"/>
     </g>
    </g>
   </g>
   <g id="matplotlib.axis_4">
    <g id="ytick_3">
     <g id="line2d_21">
      <g>
       <use style="stroke:#000000;stroke-width:0.8;" x="102.530313" xlink:href="#mbcf8f227ca" y="381.609278"/>
      </g>
     </g>
     <g id="text_21">
      <!-- −2 -->
      <g transform="translate(63.0975 389.967559)scale(0.22 -0.22)">
       <use xlink:href="#DejaVuSans-2212"/>
       <use x="83.789062" xlink:href="#DejaVuSans-32"/>
      </g>
     </g>
    </g>
    <g id="ytick_4">
     <g id="line2d_22">
      <g>
       <use style="stroke:#000000;stroke-width:0.8;" x="102.530313" xlink:href="#mbcf8f227ca" y="317.696513"/>
      </g>
     </g>
     <g id="text_22">
      <!-- 0 -->
      <g transform="translate(81.532813 326.054794)scale(0.22 -0.22)">
       <use xlink:href="#DejaVuSans-30"/>
      </g>
     </g>
    </g>
    <g id="ytick_5">
     <g id="line2d_23">
      <g>
       <use style="stroke:#000000;stroke-width:0.8;" x="102.530313" xlink:href="#mbcf8f227ca" y="253.783748"/>
      </g>
     </g>
     <g id="text_23">
      <!-- 2 -->
      <g transform="translate(81.532813 262.142029)scale(0.22 -0.22)">
       <use xlink:href="#DejaVuSans-32"/>
      </g>
     </g>
    </g>
    <g id="text_24">
     <!-- $I_p / I_d$ -->
     <g transform="translate(52.7175 340.255315)rotate(-90)scale(0.22 -0.22)">
      <use transform="translate(0 0.40625)" xlink:href="#STIXGeneral-Italic-1d610"/>
      <use transform="translate(40.099991 -13.182812)scale(0.7)" xlink:href="#STIXGeneral-Italic-1d631"/>
      <use transform="translate(77.224826 0.40625)" xlink:href="#STIXGeneral-Regular-2f"/>
      <use transform="translate(105.024814 0.40625)" xlink:href="#STIXGeneral-Italic-1d610"/>
      <use transform="translate(145.124805 -13.182812)scale(0.7)" xlink:href="#STIXGeneral-Italic-1d625"/>
     </g>
    </g>
   </g>
   <g id="line2d_24">
    <path clip-path="url(#p8bdc93cb13)" d="M 126.085298 340.293088 
L 130.843881 358.047103 
L 135.602464 361.882074 
L 140.361047 346.527469 
L 145.11963 317.696513 
L 149.878213 288.865558 
L 154.636796 273.510953 
L 159.395379 277.345924 
L 164.153962 295.099938 
L 168.912545 313.722327 
L 173.671128 320.129048 
L 178.429711 308.950738 
L 183.188294 285.740131 
L 187.946877 263.757589 
L 192.70546 256.216283 
L 197.464043 268.529177 
L 202.222626 295.099938 
L 206.981209 322.539073 
L 211.739792 337.423718 
L 216.498375 334.058707 
L 221.256958 317.696513 
L 226.015541 301.334319 
L 230.774124 297.969309 
L 235.532707 312.853953 
L 240.29129 340.293088 
L 245.049873 366.863849 
L 249.808456 379.176743 
L 254.567039 371.635438 
L 259.325622 349.652896 
L 264.084205 326.442288 
L 268.842788 315.263978 
L 273.601371 321.670699 
L 278.359954 340.293088 
L 283.118537 358.047103 
L 287.87712 361.882074 
L 292.635703 346.527469 
L 297.394286 317.696513 
L 302.152869 288.865558 
L 306.911452 273.510953 
L 311.670035 277.345924 
L 316.428618 295.099938 
L 321.187201 313.722327 
L 325.945784 320.129048 
L 330.704367 308.950738 
L 335.46295 285.740131 
L 340.221533 263.757589 
L 344.980116 256.216283 
L 349.738699 268.529177 
L 354.497282 295.099938 
L 359.255865 322.539073 
L 364.014448 337.423718 
L 368.773031 334.058707 
L 373.531614 317.696513 
L 378.290197 301.334319 
L 383.04878 297.969309 
L 387.807363 312.853953 
L 392.565946 340.293088 
L 397.324529 366.863849 
L 402.083112 379.176743 
L 406.841695 371.635438 
L 411.600278 349.652896 
L 416.358861 326.442288 
L 421.117444 315.263978 
L 425.876027 321.670699 
L 430.63461 340.293088 
L 435.393193 358.047103 
L 440.151776 361.882074 
L 444.910359 346.527469 
L 449.668942 317.696513 
L 454.427525 288.865558 
L 459.186108 273.510953 
L 463.944691 277.345924 
L 468.703274 295.099938 
L 473.461856 313.722327 
L 478.220439 320.129048 
L 482.979022 308.950738 
L 487.737605 285.740131 
L 492.496188 263.757589 
L 497.254771 256.216283 
L 502.013354 268.529177 
L 506.771937 295.099938 
L 511.53052 322.539073 
L 516.289103 337.423718 
L 521.047686 334.058707 
L 525.806269 317.696513 
L 530.564852 301.334319 
L 535.323435 297.969309 
L 540.082018 312.853953 
L 544.840601 340.293088 
L 549.599184 366.863849 
L 554.357767 379.176743 
L 559.11635 371.635438 
L 563.874933 349.652896 
L 568.633516 326.442288 
L 573.392099 315.263978 
L 578.150682 321.670699 
L 582.909265 340.293088 
L 587.667848 358.047103 
L 592.426431 361.882074 
L 597.185014 346.527469 
" style="fill:none;stroke:#1f77b4;stroke-linecap:square;stroke-width:2;"/>
   </g>
   <g id="line2d_25">
    <path clip-path="url(#p8bdc93cb13)" d="M 126.085298 338.535214 
L 130.843881 356.253969 
L 135.602464 359.891329 
L 140.361047 346.851881 
L 145.11963 319.384514 
L 149.878213 288.544946 
L 154.636796 275.733976 
L 159.395379 278.403612 
L 164.153962 294.331627 
L 168.912545 317.763856 
L 173.671128 317.416284 
L 178.429711 298.786061 
L 183.188294 276.578918 
L 187.946877 265.837138 
L 192.70546 262.859442 
L 197.464043 284.884369 
L 202.222626 309.529901 
L 206.981209 318.646656 
L 211.739792 322.375961 
L 216.498375 324.770736 
L 221.256958 312.03619 
L 226.015541 301.214161 
L 230.774124 296.52228 
L 235.532707 312.222922 
L 240.29129 340.725305 
L 245.049873 359.703331 
L 249.808456 378.260527 
L 254.567039 364.650732 
L 259.325622 337.937998 
L 264.084205 316.299465 
L 268.842788 316.940168 
L 273.601371 319.206835 
L 278.359954 338.612961 
L 283.118537 353.941 
L 287.87712 360.804701 
L 292.635703 347.09849 
L 297.394286 317.96436 
L 302.152869 285.175771 
L 306.911452 266.193834 
L 311.670035 276.214295 
L 316.428618 302.808796 
L 321.187201 318.988569 
L 325.945784 318.709419 
L 330.704367 305.155215 
L 335.46295 281.461804 
L 340.221533 259.169769 
L 344.980116 264.150062 
L 349.738699 283.867469 
L 354.497282 309.4406 
L 359.255865 319.179082 
L 364.014448 321.056303 
L 368.773031 328.364642 
L 373.531614 315.505552 
L 378.290197 302.527299 
L 383.04878 293.446219 
L 387.807363 307.270525 
L 392.565946 340.785781 
L 397.324529 361.791706 
L 402.083112 384.254347 
L 406.841695 369.436978 
L 411.600278 341.778906 
L 416.358861 319.879605 
L 421.117444 318.60958 
L 425.876027 321.964802 
L 430.63461 331.049964 
L 435.393193 354.525784 
L 440.151776 364.449332 
L 444.910359 353.013582 
L 449.668942 323.238607 
L 454.427525 293.466572 
L 459.186108 286.334191 
L 463.944691 281.587452 
L 468.703274 290.102978 
L 473.461856 309.709816 
L 478.220439 310.116533 
L 482.979022 323.463029 
L 487.737605 296.417425 
L 492.496188 277.760305 
L 497.254771 259.295066 
L 502.013354 266.519634 
L 506.771937 287.509467 
L 511.53052 322.859048 
L 516.289103 341.0911 
L 521.047686 342.07001 
L 525.806269 326.605706 
L 530.564852 309.096976 
L 535.323435 308.407612 
L 540.082018 311.313233 
L 544.840601 336.951651 
L 549.599184 365.149336 
L 554.357767 382.138983 
L 559.11635 375.115418 
L 563.874933 356.342376 
L 568.633516 333.711195 
L 573.392099 314.966696 
L 578.150682 317.898638 
L 582.909265 338.928419 
L 587.667848 356.979739 
L 592.426431 360.024058 
L 597.185014 346.960671 
" style="fill:none;stroke:#ff7f0e;stroke-linecap:square;stroke-width:2;"/>
   </g>
   <g id="patch_9">
    <path d="M 102.530313 390.65625 
L 102.530313 249.81438 
" style="fill:none;stroke:#000000;stroke-linecap:square;stroke-linejoin:miter;stroke-width:0.8;"/>
   </g>
   <g id="patch_10">
    <path d="M 620.74 390.65625 
L 620.74 249.81438 
" style="fill:none;stroke:#000000;stroke-linecap:square;stroke-linejoin:miter;stroke-width:0.8;"/>
   </g>
   <g id="patch_11">
    <path d="M 102.530313 390.65625 
L 620.74 390.65625 
" style="fill:none;stroke:#000000;stroke-linecap:square;stroke-linejoin:miter;stroke-width:0.8;"/>
   </g>
   <g id="patch_12">
    <path d="M 102.530313 249.81438 
L 620.74 249.81438 
" style="fill:none;stroke:#000000;stroke-linecap:square;stroke-linejoin:miter;stroke-width:0.8;"/>
   </g>
   <g id="legend_2">
    <g id="patch_13">
     <path d="M 517.78 333.802817 
L 605.34 333.802817 
Q 609.74 333.802817 609.74 329.402817 
L 609.74 265.21438 
Q 609.74 260.81438 605.34 260.81438 
L 517.78 260.81438 
Q 513.38 260.81438 513.38 265.21438 
L 513.38 329.402817 
Q 513.38 333.802817 517.78 333.802817 
z
" style="fill:#ffffff;opacity:0.8;stroke:#cccccc;stroke-linejoin:miter;"/>
    </g>
    <g id="line2d_26">
     <path d="M 522.18 278.630942 
L 566.18 278.630942 
" style="fill:none;stroke:#1f77b4;stroke-linecap:square;stroke-width:2;"/>
    </g>
    <g id="line2d_27"/>
    <g id="text_25">
     <!-- $I_d$ -->
     <g transform="translate(583.78 286.330942)scale(0.22 -0.22)">
      <use transform="translate(0 0.796875)" xlink:href="#STIXGeneral-Italic-1d610"/>
      <use transform="translate(40.099991 -12.792187)scale(0.7)" xlink:href="#STIXGeneral-Italic-1d625"/>
     </g>
    </g>
    <g id="line2d_28">
     <path d="M 522.18 310.922817 
L 566.18 310.922817 
" style="fill:none;stroke:#ff7f0e;stroke-linecap:square;stroke-width:2;"/>
    </g>
    <g id="line2d_29"/>
    <g id="text_26">
     <!-- $I_p$ -->
     <g transform="translate(583.78 318.622817)scale(0.22 -0.22)">
      <use transform="translate(0 0.796875)" xlink:href="#STIXGeneral-Italic-1d610"/>
      <use transform="translate(40.099991 -12.792187)scale(0.7)" xlink:href="#STIXGeneral-Italic-1d631"/>
     </g>
    </g>
   </g>
  </g>
 </g>
 <defs>
  <clipPath id="p40d49f197d">
   <rect height="140.84187" width="518.209687" x="102.530313" y="27.26"/>
  </clipPath>
  <clipPath id="p8bdc93cb13">
   <rect height="140.84187" width="518.209687" x="102.530313" y="249.81438"/>
  </clipPath>
 </defs>
</svg>
