<?xml version="1.0" encoding="utf-8" standalone="no"?>
<!DOCTYPE svg PUBLIC "-//W3C//DTD SVG 1.1//EN"
  "http://www.w3.org/Graphics/SVG/1.1/DTD/svg11.dtd">
<!-- Created with matplotlib (http://matplotlib.org/) -->
<svg height="468pt" version="1.1" viewBox="0 0 648 468" width="648pt" xmlns="http://www.w3.org/2000/svg" xmlns:xlink="http://www.w3.org/1999/xlink">
 <defs>
  <style type="text/css">
*{stroke-linecap:butt;stroke-linejoin:round;}
  </style>
 </defs>
 <g id="figure_1">
  <g id="patch_1">
   <path d="M 0 468 
L 648 468 
L 648 0 
L 0 0 
z
" style="fill:#ffffff;"/>
  </g>
  <g id="axes_1">
   <g id="patch_2">
    <path d="M 63.863281 185.865625 
L 628.3 185.865625 
L 628.3 19.7 
L 63.863281 19.7 
z
" style="fill:#ffffff;"/>
   </g>
   <g id="matplotlib.axis_1">
    <g id="xtick_1">
     <g id="line2d_1">
      <defs>
       <path d="M 0 0 
L 0 3.5 
" id="m9d5cf17356" style="stroke:#000000;stroke-width:0.8;"/>
      </defs>
      <g>
       <use style="stroke:#000000;stroke-width:0.8;" x="89.519496" xlink:href="#m9d5cf17356" y="185.865625"/>
      </g>
     </g>
     <g id="text_1">
      <!-- 0 -->
      <defs>
       <path d="M 31.78125 66.40625 
Q 24.171875 66.40625 20.328125 58.90625 
Q 16.5 51.421875 16.5 36.375 
Q 16.5 21.390625 20.328125 13.890625 
Q 24.171875 6.390625 31.78125 6.390625 
Q 39.453125 6.390625 43.28125 13.890625 
Q 47.125 21.390625 47.125 36.375 
Q 47.125 51.421875 43.28125 58.90625 
Q 39.453125 66.40625 31.78125 66.40625 
z
M 31.78125 74.21875 
Q 44.046875 74.21875 50.515625 64.515625 
Q 56.984375 54.828125 56.984375 36.375 
Q 56.984375 17.96875 50.515625 8.265625 
Q 44.046875 -1.421875 31.78125 -1.421875 
Q 19.53125 -1.421875 13.0625 8.265625 
Q 6.59375 17.96875 6.59375 36.375 
Q 6.59375 54.828125 13.0625 64.515625 
Q 19.53125 74.21875 31.78125 74.21875 
z
" id="DejaVuSans-30"/>
      </defs>
      <g transform="translate(84.747621 204.263281)scale(0.15 -0.15)">
       <use xlink:href="#DejaVuSans-30"/>
      </g>
     </g>
    </g>
    <g id="xtick_2">
     <g id="line2d_2">
      <g>
       <use style="stroke:#000000;stroke-width:0.8;" x="193.180968" xlink:href="#m9d5cf17356" y="185.865625"/>
      </g>
     </g>
     <g id="text_2">
      <!-- 20 -->
      <defs>
       <path d="M 19.1875 8.296875 
L 53.609375 8.296875 
L 53.609375 0 
L 7.328125 0 
L 7.328125 8.296875 
Q 12.9375 14.109375 22.625 23.890625 
Q 32.328125 33.6875 34.8125 36.53125 
Q 39.546875 41.84375 41.421875 45.53125 
Q 43.3125 49.21875 43.3125 52.78125 
Q 43.3125 58.59375 39.234375 62.25 
Q 35.15625 65.921875 28.609375 65.921875 
Q 23.96875 65.921875 18.8125 64.3125 
Q 13.671875 62.703125 7.8125 59.421875 
L 7.8125 69.390625 
Q 13.765625 71.78125 18.9375 73 
Q 24.125 74.21875 28.421875 74.21875 
Q 39.75 74.21875 46.484375 68.546875 
Q 53.21875 62.890625 53.21875 53.421875 
Q 53.21875 48.921875 51.53125 44.890625 
Q 49.859375 40.875 45.40625 35.40625 
Q 44.1875 33.984375 37.640625 27.21875 
Q 31.109375 20.453125 19.1875 8.296875 
z
" id="DejaVuSans-32"/>
      </defs>
      <g transform="translate(183.637218 204.263281)scale(0.15 -0.15)">
       <use xlink:href="#DejaVuSans-32"/>
       <use x="63.623047" xlink:href="#DejaVuSans-30"/>
      </g>
     </g>
    </g>
    <g id="xtick_3">
     <g id="line2d_3">
      <g>
       <use style="stroke:#000000;stroke-width:0.8;" x="296.842441" xlink:href="#m9d5cf17356" y="185.865625"/>
      </g>
     </g>
     <g id="text_3">
      <!-- 40 -->
      <defs>
       <path d="M 37.796875 64.3125 
L 12.890625 25.390625 
L 37.796875 25.390625 
z
M 35.203125 72.90625 
L 47.609375 72.90625 
L 47.609375 25.390625 
L 58.015625 25.390625 
L 58.015625 17.1875 
L 47.609375 17.1875 
L 47.609375 0 
L 37.796875 0 
L 37.796875 17.1875 
L 4.890625 17.1875 
L 4.890625 26.703125 
z
" id="DejaVuSans-34"/>
      </defs>
      <g transform="translate(287.298691 204.263281)scale(0.15 -0.15)">
       <use xlink:href="#DejaVuSans-34"/>
       <use x="63.623047" xlink:href="#DejaVuSans-30"/>
      </g>
     </g>
    </g>
    <g id="xtick_4">
     <g id="line2d_4">
      <g>
       <use style="stroke:#000000;stroke-width:0.8;" x="400.503914" xlink:href="#m9d5cf17356" y="185.865625"/>
      </g>
     </g>
     <g id="text_4">
      <!-- 60 -->
      <defs>
       <path d="M 33.015625 40.375 
Q 26.375 40.375 22.484375 35.828125 
Q 18.609375 31.296875 18.609375 23.390625 
Q 18.609375 15.53125 22.484375 10.953125 
Q 26.375 6.390625 33.015625 6.390625 
Q 39.65625 6.390625 43.53125 10.953125 
Q 47.40625 15.53125 47.40625 23.390625 
Q 47.40625 31.296875 43.53125 35.828125 
Q 39.65625 40.375 33.015625 40.375 
z
M 52.59375 71.296875 
L 52.59375 62.3125 
Q 48.875 64.0625 45.09375 64.984375 
Q 41.3125 65.921875 37.59375 65.921875 
Q 27.828125 65.921875 22.671875 59.328125 
Q 17.53125 52.734375 16.796875 39.40625 
Q 19.671875 43.65625 24.015625 45.921875 
Q 28.375 48.1875 33.59375 48.1875 
Q 44.578125 48.1875 50.953125 41.515625 
Q 57.328125 34.859375 57.328125 23.390625 
Q 57.328125 12.15625 50.6875 5.359375 
Q 44.046875 -1.421875 33.015625 -1.421875 
Q 20.359375 -1.421875 13.671875 8.265625 
Q 6.984375 17.96875 6.984375 36.375 
Q 6.984375 53.65625 15.1875 63.9375 
Q 23.390625 74.21875 37.203125 74.21875 
Q 40.921875 74.21875 44.703125 73.484375 
Q 48.484375 72.75 52.59375 71.296875 
z
" id="DejaVuSans-36"/>
      </defs>
      <g transform="translate(390.960164 204.263281)scale(0.15 -0.15)">
       <use xlink:href="#DejaVuSans-36"/>
       <use x="63.623047" xlink:href="#DejaVuSans-30"/>
      </g>
     </g>
    </g>
    <g id="xtick_5">
     <g id="line2d_5">
      <g>
       <use style="stroke:#000000;stroke-width:0.8;" x="504.165386" xlink:href="#m9d5cf17356" y="185.865625"/>
      </g>
     </g>
     <g id="text_5">
      <!-- 80 -->
      <defs>
       <path d="M 31.78125 34.625 
Q 24.75 34.625 20.71875 30.859375 
Q 16.703125 27.09375 16.703125 20.515625 
Q 16.703125 13.921875 20.71875 10.15625 
Q 24.75 6.390625 31.78125 6.390625 
Q 38.8125 6.390625 42.859375 10.171875 
Q 46.921875 13.96875 46.921875 20.515625 
Q 46.921875 27.09375 42.890625 30.859375 
Q 38.875 34.625 31.78125 34.625 
z
M 21.921875 38.8125 
Q 15.578125 40.375 12.03125 44.71875 
Q 8.5 49.078125 8.5 55.328125 
Q 8.5 64.0625 14.71875 69.140625 
Q 20.953125 74.21875 31.78125 74.21875 
Q 42.671875 74.21875 48.875 69.140625 
Q 55.078125 64.0625 55.078125 55.328125 
Q 55.078125 49.078125 51.53125 44.71875 
Q 48 40.375 41.703125 38.8125 
Q 48.828125 37.15625 52.796875 32.3125 
Q 56.78125 27.484375 56.78125 20.515625 
Q 56.78125 9.90625 50.3125 4.234375 
Q 43.84375 -1.421875 31.78125 -1.421875 
Q 19.734375 -1.421875 13.25 4.234375 
Q 6.78125 9.90625 6.78125 20.515625 
Q 6.78125 27.484375 10.78125 32.3125 
Q 14.796875 37.15625 21.921875 38.8125 
z
M 18.3125 54.390625 
Q 18.3125 48.734375 21.84375 45.5625 
Q 25.390625 42.390625 31.78125 42.390625 
Q 38.140625 42.390625 41.71875 45.5625 
Q 45.3125 48.734375 45.3125 54.390625 
Q 45.3125 60.0625 41.71875 63.234375 
Q 38.140625 66.40625 31.78125 66.40625 
Q 25.390625 66.40625 21.84375 63.234375 
Q 18.3125 60.0625 18.3125 54.390625 
z
" id="DejaVuSans-38"/>
      </defs>
      <g transform="translate(494.621636 204.263281)scale(0.15 -0.15)">
       <use xlink:href="#DejaVuSans-38"/>
       <use x="63.623047" xlink:href="#DejaVuSans-30"/>
      </g>
     </g>
    </g>
    <g id="xtick_6">
     <g id="line2d_6">
      <g>
       <use style="stroke:#000000;stroke-width:0.8;" x="607.826859" xlink:href="#m9d5cf17356" y="185.865625"/>
      </g>
     </g>
     <g id="text_6">
      <!-- 100 -->
      <defs>
       <path d="M 12.40625 8.296875 
L 28.515625 8.296875 
L 28.515625 63.921875 
L 10.984375 60.40625 
L 10.984375 69.390625 
L 28.421875 72.90625 
L 38.28125 72.90625 
L 38.28125 8.296875 
L 54.390625 8.296875 
L 54.390625 0 
L 12.40625 0 
z
" id="DejaVuSans-31"/>
      </defs>
      <g transform="translate(593.511234 204.263281)scale(0.15 -0.15)">
       <use xlink:href="#DejaVuSans-31"/>
       <use x="63.623047" xlink:href="#DejaVuSans-30"/>
       <use x="127.246094" xlink:href="#DejaVuSans-30"/>
      </g>
     </g>
    </g>
    <g id="text_7">
     <!-- time step -->
     <defs>
      <path d="M 18.3125 70.21875 
L 18.3125 54.6875 
L 36.8125 54.6875 
L 36.8125 47.703125 
L 18.3125 47.703125 
L 18.3125 18.015625 
Q 18.3125 11.328125 20.140625 9.421875 
Q 21.96875 7.515625 27.59375 7.515625 
L 36.8125 7.515625 
L 36.8125 0 
L 27.59375 0 
Q 17.1875 0 13.234375 3.875 
Q 9.28125 7.765625 9.28125 18.015625 
L 9.28125 47.703125 
L 2.6875 47.703125 
L 2.6875 54.6875 
L 9.28125 54.6875 
L 9.28125 70.21875 
z
" id="DejaVuSans-74"/>
      <path d="M 9.421875 54.6875 
L 18.40625 54.6875 
L 18.40625 0 
L 9.421875 0 
z
M 9.421875 75.984375 
L 18.40625 75.984375 
L 18.40625 64.59375 
L 9.421875 64.59375 
z
" id="DejaVuSans-69"/>
      <path d="M 52 44.1875 
Q 55.375 50.25 60.0625 53.125 
Q 64.75 56 71.09375 56 
Q 79.640625 56 84.28125 50.015625 
Q 88.921875 44.046875 88.921875 33.015625 
L 88.921875 0 
L 79.890625 0 
L 79.890625 32.71875 
Q 79.890625 40.578125 77.09375 44.375 
Q 74.3125 48.1875 68.609375 48.1875 
Q 61.625 48.1875 57.5625 43.546875 
Q 53.515625 38.921875 53.515625 30.90625 
L 53.515625 0 
L 44.484375 0 
L 44.484375 32.71875 
Q 44.484375 40.625 41.703125 44.40625 
Q 38.921875 48.1875 33.109375 48.1875 
Q 26.21875 48.1875 22.15625 43.53125 
Q 18.109375 38.875 18.109375 30.90625 
L 18.109375 0 
L 9.078125 0 
L 9.078125 54.6875 
L 18.109375 54.6875 
L 18.109375 46.1875 
Q 21.1875 51.21875 25.484375 53.609375 
Q 29.78125 56 35.6875 56 
Q 41.65625 56 45.828125 52.96875 
Q 50 49.953125 52 44.1875 
z
" id="DejaVuSans-6d"/>
      <path d="M 56.203125 29.59375 
L 56.203125 25.203125 
L 14.890625 25.203125 
Q 15.484375 15.921875 20.484375 11.0625 
Q 25.484375 6.203125 34.421875 6.203125 
Q 39.59375 6.203125 44.453125 7.46875 
Q 49.3125 8.734375 54.109375 11.28125 
L 54.109375 2.78125 
Q 49.265625 0.734375 44.1875 -0.34375 
Q 39.109375 -1.421875 33.890625 -1.421875 
Q 20.796875 -1.421875 13.15625 6.1875 
Q 5.515625 13.8125 5.515625 26.8125 
Q 5.515625 40.234375 12.765625 48.109375 
Q 20.015625 56 32.328125 56 
Q 43.359375 56 49.78125 48.890625 
Q 56.203125 41.796875 56.203125 29.59375 
z
M 47.21875 32.234375 
Q 47.125 39.59375 43.09375 43.984375 
Q 39.0625 48.390625 32.421875 48.390625 
Q 24.90625 48.390625 20.390625 44.140625 
Q 15.875 39.890625 15.1875 32.171875 
z
" id="DejaVuSans-65"/>
      <path id="DejaVuSans-20"/>
      <path d="M 44.28125 53.078125 
L 44.28125 44.578125 
Q 40.484375 46.53125 36.375 47.5 
Q 32.28125 48.484375 27.875 48.484375 
Q 21.1875 48.484375 17.84375 46.4375 
Q 14.5 44.390625 14.5 40.28125 
Q 14.5 37.15625 16.890625 35.375 
Q 19.28125 33.59375 26.515625 31.984375 
L 29.59375 31.296875 
Q 39.15625 29.25 43.1875 25.515625 
Q 47.21875 21.78125 47.21875 15.09375 
Q 47.21875 7.46875 41.1875 3.015625 
Q 35.15625 -1.421875 24.609375 -1.421875 
Q 20.21875 -1.421875 15.453125 -0.5625 
Q 10.6875 0.296875 5.421875 2 
L 5.421875 11.28125 
Q 10.40625 8.6875 15.234375 7.390625 
Q 20.0625 6.109375 24.8125 6.109375 
Q 31.15625 6.109375 34.5625 8.28125 
Q 37.984375 10.453125 37.984375 14.40625 
Q 37.984375 18.0625 35.515625 20.015625 
Q 33.0625 21.96875 24.703125 23.78125 
L 21.578125 24.515625 
Q 13.234375 26.265625 9.515625 29.90625 
Q 5.8125 33.546875 5.8125 39.890625 
Q 5.8125 47.609375 11.28125 51.796875 
Q 16.75 56 26.8125 56 
Q 31.78125 56 36.171875 55.265625 
Q 40.578125 54.546875 44.28125 53.078125 
z
" id="DejaVuSans-73"/>
      <path d="M 18.109375 8.203125 
L 18.109375 -20.796875 
L 9.078125 -20.796875 
L 9.078125 54.6875 
L 18.109375 54.6875 
L 18.109375 46.390625 
Q 20.953125 51.265625 25.265625 53.625 
Q 29.59375 56 35.59375 56 
Q 45.5625 56 51.78125 48.09375 
Q 58.015625 40.1875 58.015625 27.296875 
Q 58.015625 14.40625 51.78125 6.484375 
Q 45.5625 -1.421875 35.59375 -1.421875 
Q 29.59375 -1.421875 25.265625 0.953125 
Q 20.953125 3.328125 18.109375 8.203125 
z
M 48.6875 27.296875 
Q 48.6875 37.203125 44.609375 42.84375 
Q 40.53125 48.484375 33.40625 48.484375 
Q 26.265625 48.484375 22.1875 42.84375 
Q 18.109375 37.203125 18.109375 27.296875 
Q 18.109375 17.390625 22.1875 11.75 
Q 26.265625 6.109375 33.40625 6.109375 
Q 40.53125 6.109375 44.609375 11.75 
Q 48.6875 17.390625 48.6875 27.296875 
z
" id="DejaVuSans-70"/>
     </defs>
     <g transform="translate(310.530469 222.780469)scale(0.15 -0.15)">
      <use xlink:href="#DejaVuSans-74"/>
      <use x="39.208984" xlink:href="#DejaVuSans-69"/>
      <use x="66.992188" xlink:href="#DejaVuSans-6d"/>
      <use x="164.404297" xlink:href="#DejaVuSans-65"/>
      <use x="225.927734" xlink:href="#DejaVuSans-20"/>
      <use x="257.714844" xlink:href="#DejaVuSans-73"/>
      <use x="309.814453" xlink:href="#DejaVuSans-74"/>
      <use x="349.023438" xlink:href="#DejaVuSans-65"/>
      <use x="410.546875" xlink:href="#DejaVuSans-70"/>
     </g>
    </g>
   </g>
   <g id="matplotlib.axis_2">
    <g id="ytick_1">
     <g id="line2d_7">
      <defs>
       <path d="M 0 0 
L -3.5 0 
" id="m27a3ed8b4d" style="stroke:#000000;stroke-width:0.8;"/>
      </defs>
      <g>
       <use style="stroke:#000000;stroke-width:0.8;" x="63.863281" xlink:href="#m27a3ed8b4d" y="161.412133"/>
      </g>
     </g>
     <g id="text_8">
      <!-- −2 -->
      <defs>
       <path d="M 10.59375 35.5 
L 73.1875 35.5 
L 73.1875 27.203125 
L 10.59375 27.203125 
z
" id="DejaVuSans-2212"/>
      </defs>
      <g transform="translate(34.75 167.110961)scale(0.15 -0.15)">
       <use xlink:href="#DejaVuSans-2212"/>
       <use x="83.789062" xlink:href="#DejaVuSans-32"/>
      </g>
     </g>
    </g>
    <g id="ytick_2">
     <g id="line2d_8">
      <g>
       <use style="stroke:#000000;stroke-width:0.8;" x="63.863281" xlink:href="#m27a3ed8b4d" y="121.959895"/>
      </g>
     </g>
     <g id="text_9">
      <!-- 0 -->
      <g transform="translate(47.319531 127.658723)scale(0.15 -0.15)">
       <use xlink:href="#DejaVuSans-30"/>
      </g>
     </g>
    </g>
    <g id="ytick_3">
     <g id="line2d_9">
      <g>
       <use style="stroke:#000000;stroke-width:0.8;" x="63.863281" xlink:href="#m27a3ed8b4d" y="82.507657"/>
      </g>
     </g>
     <g id="text_10">
      <!-- 2 -->
      <g transform="translate(47.319531 88.206486)scale(0.15 -0.15)">
       <use xlink:href="#DejaVuSans-32"/>
      </g>
     </g>
    </g>
    <g id="ytick_4">
     <g id="line2d_10">
      <g>
       <use style="stroke:#000000;stroke-width:0.8;" x="63.863281" xlink:href="#m27a3ed8b4d" y="43.05542"/>
      </g>
     </g>
     <g id="text_11">
      <!-- 4 -->
      <g transform="translate(47.319531 48.754248)scale(0.15 -0.15)">
       <use xlink:href="#DejaVuSans-34"/>
      </g>
     </g>
    </g>
    <g id="text_12">
     <!-- $I_p / I_d$ -->
     <defs>
      <path d="M 51.203125 66.203125 
L 50.203125 58.796875 
L 39.09375 58.796875 
L 26.296875 7.40625 
L 37.40625 7.40625 
L 34.703125 0 
L 5.90625 0 
L 6.296875 7.40625 
L 17.40625 7.40625 
L 30.203125 58.796875 
L 19.09375 58.796875 
L 22.40625 66.203125 
z
" id="STIXGeneral-Italic-1d610"/>
      <path d="M 25.59375 45.90625 
L 24.5 40.90625 
Q 31.40625 46.296875 39.59375 46.296875 
Q 46.09375 46.296875 49.9375 42.140625 
Q 53.796875 38 53.796875 30.703125 
Q 53.796875 18.40625 44.546875 8.703125 
Q 35.296875 -1 25 -1 
Q 19.40625 -1 15.203125 2.59375 
L 9.796875 -19.203125 
L 2.203125 -21.59375 
L 1.40625 -21.09375 
L 17.59375 44 
L 24.90625 46.40625 
z
M 21.90625 29.5 
L 17.59375 12.296875 
Q 19.90625 6.09375 26.40625 6.09375 
Q 34 6.09375 39.75 12.84375 
Q 45.5 19.59375 45.5 28.40625 
Q 45.5 33.203125 43 36.203125 
Q 40.5 39.203125 35.796875 39.203125 
Q 32.296875 39.203125 28.5 36.546875 
Q 24.703125 33.90625 21.90625 29.5 
z
" id="STIXGeneral-Italic-1d631"/>
      <path d="M 28.703125 67.59375 
L 5.90625 -1.40625 
L -0.90625 -1.40625 
L 22 67.59375 
z
" id="STIXGeneral-Regular-2f"/>
      <path d="M 60 67.90625 
L 46.203125 12.796875 
Q 44.59375 6.203125 44 1.296875 
L 36.203125 -1.09375 
L 35.40625 -0.59375 
L 36.40625 4.40625 
Q 29.5 -1 21.40625 -1 
Q 14.90625 -1 11.046875 3.046875 
Q 7.203125 7.09375 7.203125 14.40625 
Q 7.203125 26.90625 16.390625 36.59375 
Q 25.59375 46.296875 36 46.296875 
Q 41.5 46.296875 45.796875 42.59375 
L 51.59375 66 
L 59.203125 68.40625 
z
M 39.09375 15.796875 
L 43.40625 32.90625 
Q 40.703125 39.203125 34.59375 39.203125 
Q 28.09375 39.203125 21.796875 32.640625 
Q 15.5 26.09375 15.5 16.796875 
Q 15.5 11.5 18.140625 8.796875 
Q 20.796875 6.09375 25.203125 6.09375 
Q 28.703125 6.09375 32.5 8.75 
Q 36.296875 11.40625 39.09375 15.796875 
z
" id="STIXGeneral-Italic-1d625"/>
     </defs>
     <g transform="translate(26.4 116.432813)rotate(-90)scale(0.15 -0.15)">
      <use transform="translate(0 0.40625)" xlink:href="#STIXGeneral-Italic-1d610"/>
      <use transform="translate(40.099991 -13.182812)scale(0.7)" xlink:href="#STIXGeneral-Italic-1d631"/>
      <use transform="translate(77.224826 0.40625)" xlink:href="#STIXGeneral-Regular-2f"/>
      <use transform="translate(105.024814 0.40625)" xlink:href="#STIXGeneral-Italic-1d610"/>
      <use transform="translate(145.124805 -13.182812)scale(0.7)" xlink:href="#STIXGeneral-Italic-1d625"/>
     </g>
    </g>
   </g>
   <g id="line2d_11">
    <path clip-path="url(#pd8fdb7565e)" d="M 89.519496 121.959895 
L 94.702569 104.163048 
L 99.885643 94.684917 
L 105.068717 97.052178 
L 110.25179 108.011423 
L 115.434864 119.506699 
L 120.617938 123.461457 
L 125.801011 116.561281 
L 130.984085 102.233776 
L 136.167158 88.664336 
L 141.350232 84.009219 
L 146.533306 91.609754 
L 151.716379 108.011423 
L 156.899453 124.949123 
L 162.082527 134.137155 
L 167.2656 132.059993 
L 172.448674 121.959895 
L 177.631748 111.859798 
L 182.814821 109.782635 
L 187.997895 118.970667 
L 193.180968 135.908368 
L 198.364042 152.310036 
L 203.547116 159.910571 
L 208.730189 155.255454 
L 213.913263 141.686014 
L 219.096337 127.35851 
L 224.27941 120.458334 
L 229.462484 124.413091 
L 234.645557 135.908368 
L 239.828631 146.867612 
L 245.011705 149.234873 
L 250.194778 139.756742 
L 255.377852 121.959895 
L 260.560926 104.163048 
L 265.743999 94.684917 
L 270.927073 97.052178 
L 276.110147 108.011423 
L 281.29322 119.506699 
L 286.476294 123.461457 
L 291.659367 116.561281 
L 296.842441 102.233776 
L 302.025515 88.664336 
L 307.208588 84.009219 
L 312.391662 91.609754 
L 317.574736 108.011423 
L 322.757809 124.949123 
L 327.940883 134.137155 
L 333.123957 132.059993 
L 338.30703 121.959895 
L 343.490104 111.859798 
L 348.673177 109.782635 
L 353.856251 118.970667 
L 359.039325 135.908368 
L 364.222398 152.310036 
L 369.405472 159.910571 
L 374.588546 155.255454 
L 379.771619 141.686014 
L 384.954693 127.35851 
L 390.137767 120.458334 
L 395.32084 124.413091 
L 400.503914 135.908368 
L 405.686987 146.867612 
L 410.870061 149.234873 
L 416.053135 139.756742 
L 421.236208 121.959895 
L 426.419282 104.163048 
L 431.602356 94.684917 
L 436.785429 97.052178 
L 441.968503 108.011423 
L 447.151576 119.506699 
L 452.33465 123.461457 
L 457.517724 116.561281 
L 462.700797 102.233776 
L 467.883871 88.664336 
L 473.066945 84.009219 
L 478.250018 91.609754 
L 483.433092 108.011423 
L 488.616166 124.949123 
L 493.799239 134.137155 
L 498.982313 132.059993 
L 504.165386 121.959895 
L 509.34846 111.859798 
L 514.531534 109.782635 
L 519.714607 118.970667 
L 524.897681 135.908368 
L 530.080755 152.310036 
L 535.263828 159.910571 
L 540.446902 155.255454 
L 545.629976 141.686014 
L 550.813049 127.35851 
L 555.996123 120.458334 
L 561.179196 124.413091 
L 566.36227 135.908368 
L 571.545344 146.867612 
L 576.728417 149.234873 
L 581.911491 139.756742 
L 587.094565 121.959895 
L 592.277638 104.163048 
L 597.460712 94.684917 
L 602.643786 97.052178 
" style="fill:none;stroke:#1f77b4;stroke-linecap:square;stroke-width:2;"/>
   </g>
   <g id="line2d_12">
    <path clip-path="url(#pd8fdb7565e)" d="M 89.519496 121.959895 
L 94.702569 121.959895 
L 99.885643 121.960418 
L 105.068717 171.159946 
L 110.25179 129.124222 
L 115.434864 53.693196 
L 120.617938 77.98545 
L 125.801011 143.958603 
L 130.984085 159.770392 
L 136.167158 116.023025 
L 141.350232 104.707503 
L 146.533306 178.312642 
L 151.716379 87.634639 
L 156.899453 27.252983 
L 162.082527 118.076918 
L 167.2656 87.867879 
L 172.448674 120.976789 
L 177.631748 111.942104 
L 182.814821 156.460696 
L 187.997895 115.415002 
L 193.180968 121.085406 
L 198.364042 120.334187 
L 203.547116 107.538249 
L 208.730189 131.825084 
L 213.913263 124.672658 
L 219.096337 112.543872 
L 224.27941 115.430659 
L 229.462484 121.626299 
L 234.645557 127.896131 
L 239.828631 120.503446 
L 245.011705 120.417883 
L 250.194778 122.230487 
L 255.377852 122.094747 
L 260.560926 125.221981 
L 265.743999 120.703149 
L 270.927073 121.987594 
L 276.110147 158.387843 
L 281.29322 105.387945 
L 286.476294 60.043756 
L 291.659367 88.800476 
L 296.842441 155.517352 
L 302.025515 150.533382 
L 307.208588 120.714158 
L 312.391662 108.89986 
L 317.574736 137.996082 
L 322.757809 109.022987 
L 327.940883 71.27585 
L 333.123957 81.161426 
L 338.30703 114.129285 
L 343.490104 169.83592 
L 348.673177 132.501934 
L 353.856251 122.162173 
L 359.039325 103.911979 
L 364.222398 132.108365 
L 369.405472 136.010129 
L 374.588546 111.234817 
L 379.771619 108.149684 
L 384.954693 119.519976 
L 390.137767 133.718661 
L 395.32084 118.298735 
L 400.503914 115.915521 
L 405.686987 119.398167 
L 410.870061 127.919034 
L 416.053135 126.716578 
L 421.236208 121.907117 
L 426.419282 117.815406 
L 431.602356 121.936066 
L 436.785429 130.265229 
L 441.968503 110.322604 
L 447.151576 75.932979 
L 452.33465 100.216924 
L 457.517724 129.239725 
L 462.700797 115.819462 
L 467.883871 96.662251 
L 473.066945 143.665982 
L 478.250018 75.817116 
L 483.433092 91.835138 
L 488.616166 88.59994 
L 493.799239 102.359253 
L 498.982313 114.698449 
L 504.165386 112.00389 
L 509.34846 129.59703 
L 514.531534 155.290405 
L 519.714607 140.134762 
L 524.897681 125.195804 
L 530.080755 99.853254 
L 535.263828 129.335159 
L 540.446902 132.512295 
L 545.629976 113.954845 
L 550.813049 110.362314 
L 555.996123 116.981717 
L 561.179196 134.389509 
L 566.36227 122.878815 
L 571.545344 120.351474 
L 576.728417 116.274428 
L 581.911491 125.958918 
L 587.094565 126.145951 
L 592.277638 123.009114 
L 597.460712 118.694036 
L 602.643786 129.843251 
" style="fill:none;stroke:#ff7f0e;stroke-linecap:square;stroke-width:2;"/>
   </g>
   <g id="patch_3">
    <path d="M 63.863281 185.865625 
L 63.863281 19.7 
" style="fill:none;stroke:#000000;stroke-linecap:square;stroke-linejoin:miter;stroke-width:0.8;"/>
   </g>
   <g id="patch_4">
    <path d="M 628.3 185.865625 
L 628.3 19.7 
" style="fill:none;stroke:#000000;stroke-linecap:square;stroke-linejoin:miter;stroke-width:0.8;"/>
   </g>
   <g id="patch_5">
    <path d="M 63.863281 185.865625 
L 628.3 185.865625 
" style="fill:none;stroke:#000000;stroke-linecap:square;stroke-linejoin:miter;stroke-width:0.8;"/>
   </g>
   <g id="patch_6">
    <path d="M 63.863281 19.7 
L 628.3 19.7 
" style="fill:none;stroke:#000000;stroke-linecap:square;stroke-linejoin:miter;stroke-width:0.8;"/>
   </g>
   <g id="legend_1">
    <g id="patch_7">
     <path d="M 558.1 76.964844 
L 617.8 76.964844 
Q 620.8 76.964844 620.8 73.964844 
L 620.8 30.2 
Q 620.8 27.2 617.8 27.2 
L 558.1 27.2 
Q 555.1 27.2 555.1 30.2 
L 555.1 73.964844 
Q 555.1 76.964844 558.1 76.964844 
z
" style="fill:#ffffff;opacity:0.8;stroke:#cccccc;stroke-linejoin:miter;"/>
    </g>
    <g id="line2d_13">
     <path d="M 561.1 39.347656 
L 591.1 39.347656 
" style="fill:none;stroke:#1f77b4;stroke-linecap:square;stroke-width:2;"/>
    </g>
    <g id="line2d_14"/>
    <g id="text_13">
     <!-- $I_d$ -->
     <g transform="translate(603.1 44.597656)scale(0.15 -0.15)">
      <use transform="translate(0 0.796875)" xlink:href="#STIXGeneral-Italic-1d610"/>
      <use transform="translate(40.099991 -12.792187)scale(0.7)" xlink:href="#STIXGeneral-Italic-1d625"/>
     </g>
    </g>
    <g id="line2d_15">
     <path d="M 561.1 61.364844 
L 591.1 61.364844 
" style="fill:none;stroke:#ff7f0e;stroke-linecap:square;stroke-width:2;"/>
    </g>
    <g id="line2d_16"/>
    <g id="text_14">
     <!-- $I_p$ -->
     <g transform="translate(603.1 66.614844)scale(0.15 -0.15)">
      <use transform="translate(0 0.796875)" xlink:href="#STIXGeneral-Italic-1d610"/>
      <use transform="translate(40.099991 -12.792187)scale(0.7)" xlink:href="#STIXGeneral-Italic-1d631"/>
     </g>
    </g>
   </g>
  </g>
  <g id="axes_2">
   <g id="patch_8">
    <path d="M 63.863281 411.765625 
L 628.3 411.765625 
L 628.3 245.6 
L 63.863281 245.6 
z
" style="fill:#ffffff;"/>
   </g>
   <g id="matplotlib.axis_3">
    <g id="xtick_7">
     <g id="line2d_17">
      <g>
       <use style="stroke:#000000;stroke-width:0.8;" x="89.519496" xlink:href="#m9d5cf17356" y="411.765625"/>
      </g>
     </g>
     <g id="text_15">
      <!-- $\mathdefault{−1.0}$ -->
      <defs>
       <path d="M 10.6875 12.40625 
L 21 12.40625 
L 21 0 
L 10.6875 0 
z
" id="DejaVuSans-2e"/>
      </defs>
      <g transform="translate(71.294496 430.163281)scale(0.15 -0.15)">
       <use transform="translate(0 0.78125)" xlink:href="#DejaVuSans-2212"/>
       <use transform="translate(83.789062 0.78125)" xlink:href="#DejaVuSans-31"/>
       <use transform="translate(147.412109 0.78125)" xlink:href="#DejaVuSans-2e"/>
       <use transform="translate(179.199219 0.78125)" xlink:href="#DejaVuSans-30"/>
      </g>
     </g>
    </g>
    <g id="xtick_8">
     <g id="line2d_18">
      <g>
       <use style="stroke:#000000;stroke-width:0.8;" x="193.180968" xlink:href="#m9d5cf17356" y="411.765625"/>
      </g>
     </g>
     <g id="text_16">
      <!-- $\mathdefault{−0.8}$ -->
      <g transform="translate(174.955968 430.163281)scale(0.15 -0.15)">
       <use transform="translate(0 0.78125)" xlink:href="#DejaVuSans-2212"/>
       <use transform="translate(83.789062 0.78125)" xlink:href="#DejaVuSans-30"/>
       <use transform="translate(147.412109 0.78125)" xlink:href="#DejaVuSans-2e"/>
       <use transform="translate(179.167969 0.78125)" xlink:href="#DejaVuSans-38"/>
      </g>
     </g>
    </g>
    <g id="xtick_9">
     <g id="line2d_19">
      <g>
       <use style="stroke:#000000;stroke-width:0.8;" x="296.842441" xlink:href="#m9d5cf17356" y="411.765625"/>
      </g>
     </g>
     <g id="text_17">
      <!-- $\mathdefault{−0.6}$ -->
      <g transform="translate(278.617441 430.163281)scale(0.15 -0.15)">
       <use transform="translate(0 0.78125)" xlink:href="#DejaVuSans-2212"/>
       <use transform="translate(83.789062 0.78125)" xlink:href="#DejaVuSans-30"/>
       <use transform="translate(147.412109 0.78125)" xlink:href="#DejaVuSans-2e"/>
       <use transform="translate(179.199219 0.78125)" xlink:href="#DejaVuSans-36"/>
      </g>
     </g>
    </g>
    <g id="xtick_10">
     <g id="line2d_20">
      <g>
       <use style="stroke:#000000;stroke-width:0.8;" x="400.503914" xlink:href="#m9d5cf17356" y="411.765625"/>
      </g>
     </g>
     <g id="text_18">
      <!-- $\mathdefault{−0.4}$ -->
      <g transform="translate(382.278914 430.163281)scale(0.15 -0.15)">
       <use transform="translate(0 0.78125)" xlink:href="#DejaVuSans-2212"/>
       <use transform="translate(83.789062 0.78125)" xlink:href="#DejaVuSans-30"/>
       <use transform="translate(147.412109 0.78125)" xlink:href="#DejaVuSans-2e"/>
       <use transform="translate(179.199219 0.78125)" xlink:href="#DejaVuSans-34"/>
      </g>
     </g>
    </g>
    <g id="xtick_11">
     <g id="line2d_21">
      <g>
       <use style="stroke:#000000;stroke-width:0.8;" x="504.165386" xlink:href="#m9d5cf17356" y="411.765625"/>
      </g>
     </g>
     <g id="text_19">
      <!-- $\mathdefault{−0.2}$ -->
      <g transform="translate(485.940386 430.163281)scale(0.15 -0.15)">
       <use transform="translate(0 0.78125)" xlink:href="#DejaVuSans-2212"/>
       <use transform="translate(83.789062 0.78125)" xlink:href="#DejaVuSans-30"/>
       <use transform="translate(147.412109 0.78125)" xlink:href="#DejaVuSans-2e"/>
       <use transform="translate(179.121094 0.78125)" xlink:href="#DejaVuSans-32"/>
      </g>
     </g>
    </g>
    <g id="xtick_12">
     <g id="line2d_22">
      <g>
       <use style="stroke:#000000;stroke-width:0.8;" x="607.826859" xlink:href="#m9d5cf17356" y="411.765625"/>
      </g>
     </g>
     <g id="text_20">
      <!-- $\mathdefault{0.0}$ -->
      <g transform="translate(595.826859 430.163281)scale(0.15 -0.15)">
       <use transform="translate(0 0.78125)" xlink:href="#DejaVuSans-30"/>
       <use transform="translate(63.623047 0.78125)" xlink:href="#DejaVuSans-2e"/>
       <use transform="translate(95.410156 0.78125)" xlink:href="#DejaVuSans-30"/>
      </g>
     </g>
    </g>
    <g id="text_21">
     <!-- time step -->
     <g transform="translate(310.530469 448.680469)scale(0.15 -0.15)">
      <use xlink:href="#DejaVuSans-74"/>
      <use x="39.208984" xlink:href="#DejaVuSans-69"/>
      <use x="66.992188" xlink:href="#DejaVuSans-6d"/>
      <use x="164.404297" xlink:href="#DejaVuSans-65"/>
      <use x="225.927734" xlink:href="#DejaVuSans-20"/>
      <use x="257.714844" xlink:href="#DejaVuSans-73"/>
      <use x="309.814453" xlink:href="#DejaVuSans-74"/>
      <use x="349.023438" xlink:href="#DejaVuSans-65"/>
      <use x="410.546875" xlink:href="#DejaVuSans-70"/>
     </g>
    </g>
    <g id="text_22">
     <!-- $\times\mathdefault{10^{2}}\mathdefault{+3{\times}10^{6}}$ -->
     <defs>
      <path d="M 59.703125 2.203125 
L 55.09375 -2.5 
L 32 20.5 
L 8.90625 -2.5 
L 4.296875 2.09375 
L 27.296875 25.203125 
L 4.296875 48.296875 
L 9 52.90625 
L 32 29.90625 
L 55.09375 52.90625 
L 59.703125 48.40625 
L 36.703125 25.203125 
z
" id="STIXGeneral-Regular-d7"/>
      <path d="M 46 62.703125 
L 46 35.5 
L 73.1875 35.5 
L 73.1875 27.203125 
L 46 27.203125 
L 46 0 
L 37.796875 0 
L 37.796875 27.203125 
L 10.59375 27.203125 
L 10.59375 35.5 
L 37.796875 35.5 
L 37.796875 62.703125 
z
" id="DejaVuSans-2b"/>
      <path d="M 40.578125 39.3125 
Q 47.65625 37.796875 51.625 33 
Q 55.609375 28.21875 55.609375 21.1875 
Q 55.609375 10.40625 48.1875 4.484375 
Q 40.765625 -1.421875 27.09375 -1.421875 
Q 22.515625 -1.421875 17.65625 -0.515625 
Q 12.796875 0.390625 7.625 2.203125 
L 7.625 11.71875 
Q 11.71875 9.328125 16.59375 8.109375 
Q 21.484375 6.890625 26.8125 6.890625 
Q 36.078125 6.890625 40.9375 10.546875 
Q 45.796875 14.203125 45.796875 21.1875 
Q 45.796875 27.640625 41.28125 31.265625 
Q 36.765625 34.90625 28.71875 34.90625 
L 20.21875 34.90625 
L 20.21875 43.015625 
L 29.109375 43.015625 
Q 36.375 43.015625 40.234375 45.921875 
Q 44.09375 48.828125 44.09375 54.296875 
Q 44.09375 59.90625 40.109375 62.90625 
Q 36.140625 65.921875 28.71875 65.921875 
Q 24.65625 65.921875 20.015625 65.03125 
Q 15.375 64.15625 9.8125 62.3125 
L 9.8125 71.09375 
Q 15.4375 72.65625 20.34375 73.4375 
Q 25.25 74.21875 29.59375 74.21875 
Q 40.828125 74.21875 47.359375 69.109375 
Q 53.90625 64.015625 53.90625 55.328125 
Q 53.90625 49.265625 50.4375 45.09375 
Q 46.96875 40.921875 40.578125 39.3125 
z
" id="DejaVuSans-33"/>
      <path d="M 70.125 53.71875 
L 47.796875 31.296875 
L 70.125 8.984375 
L 64.3125 3.078125 
L 41.890625 25.484375 
L 19.484375 3.078125 
L 13.71875 8.984375 
L 35.984375 31.296875 
L 13.71875 53.71875 
L 19.484375 59.625 
L 41.890625 37.203125 
L 64.3125 59.625 
z
" id="DejaVuSans-d7"/>
     </defs>
     <g transform="translate(531.25 447.680469)scale(0.15 -0.15)">
      <use transform="translate(0 0.765625)" xlink:href="#STIXGeneral-Regular-d7"/>
      <use transform="translate(63.999985 0.765625)" xlink:href="#DejaVuSans-31"/>
      <use transform="translate(127.623032 0.765625)" xlink:href="#DejaVuSans-30"/>
      <use transform="translate(192.20311 39.046875)scale(0.7)" xlink:href="#DejaVuSans-32"/>
      <use transform="translate(239.473618 0.765625)" xlink:href="#DejaVuSans-2b"/>
      <use transform="translate(323.26268 0.765625)" xlink:href="#DejaVuSans-33"/>
      <use transform="translate(386.885727 0.765625)" xlink:href="#DejaVuSans-d7"/>
      <use transform="translate(470.674789 0.765625)" xlink:href="#DejaVuSans-31"/>
      <use transform="translate(534.297836 0.765625)" xlink:href="#DejaVuSans-30"/>
      <use transform="translate(598.877914 39.046875)scale(0.7)" xlink:href="#DejaVuSans-36"/>
     </g>
    </g>
   </g>
   <g id="matplotlib.axis_4">
    <g id="ytick_5">
     <g id="line2d_23">
      <g>
       <use style="stroke:#000000;stroke-width:0.8;" x="63.863281" xlink:href="#m27a3ed8b4d" y="404.433084"/>
      </g>
     </g>
     <g id="text_23">
      <!-- −2 -->
      <g transform="translate(34.75 410.131912)scale(0.15 -0.15)">
       <use xlink:href="#DejaVuSans-2212"/>
       <use x="83.789062" xlink:href="#DejaVuSans-32"/>
      </g>
     </g>
    </g>
    <g id="ytick_6">
     <g id="line2d_24">
      <g>
       <use style="stroke:#000000;stroke-width:0.8;" x="63.863281" xlink:href="#m27a3ed8b4d" y="365.879377"/>
      </g>
     </g>
     <g id="text_24">
      <!-- −1 -->
      <g transform="translate(34.75 371.578205)scale(0.15 -0.15)">
       <use xlink:href="#DejaVuSans-2212"/>
       <use x="83.789062" xlink:href="#DejaVuSans-31"/>
      </g>
     </g>
    </g>
    <g id="ytick_7">
     <g id="line2d_25">
      <g>
       <use style="stroke:#000000;stroke-width:0.8;" x="63.863281" xlink:href="#m27a3ed8b4d" y="327.32567"/>
      </g>
     </g>
     <g id="text_25">
      <!-- 0 -->
      <g transform="translate(47.319531 333.024499)scale(0.15 -0.15)">
       <use xlink:href="#DejaVuSans-30"/>
      </g>
     </g>
    </g>
    <g id="ytick_8">
     <g id="line2d_26">
      <g>
       <use style="stroke:#000000;stroke-width:0.8;" x="63.863281" xlink:href="#m27a3ed8b4d" y="288.771964"/>
      </g>
     </g>
     <g id="text_26">
      <!-- 1 -->
      <g transform="translate(47.319531 294.470792)scale(0.15 -0.15)">
       <use xlink:href="#DejaVuSans-31"/>
      </g>
     </g>
    </g>
    <g id="ytick_9">
     <g id="line2d_27">
      <g>
       <use style="stroke:#000000;stroke-width:0.8;" x="63.863281" xlink:href="#m27a3ed8b4d" y="250.218257"/>
      </g>
     </g>
     <g id="text_27">
      <!-- 2 -->
      <g transform="translate(47.319531 255.917085)scale(0.15 -0.15)">
       <use xlink:href="#DejaVuSans-32"/>
      </g>
     </g>
    </g>
    <g id="text_28">
     <!-- $I_p / I_d$ -->
     <g transform="translate(26.4 342.332813)rotate(-90)scale(0.15 -0.15)">
      <use transform="translate(0 0.40625)" xlink:href="#STIXGeneral-Italic-1d610"/>
      <use transform="translate(40.099991 -13.182812)scale(0.7)" xlink:href="#STIXGeneral-Italic-1d631"/>
      <use transform="translate(77.224826 0.40625)" xlink:href="#STIXGeneral-Regular-2f"/>
      <use transform="translate(105.024814 0.40625)" xlink:href="#STIXGeneral-Italic-1d610"/>
      <use transform="translate(145.124805 -13.182812)scale(0.7)" xlink:href="#STIXGeneral-Italic-1d625"/>
     </g>
    </g>
   </g>
   <g id="line2d_28">
    <path clip-path="url(#p2e5555e6c3)" d="M 89.519496 354.587258 
L 94.702569 376.00655 
L 99.885643 380.633242 
L 105.068717 362.108713 
L 110.25179 327.32567 
L 115.434864 292.542628 
L 120.617938 274.018099 
L 125.801011 278.644791 
L 130.984085 300.064083 
L 136.167158 322.531022 
L 141.350232 330.260397 
L 146.533306 316.77435 
L 151.716379 288.771964 
L 156.899453 262.251175 
L 162.082527 253.152983 
L 167.2656 268.007847 
L 172.448674 300.064083 
L 177.631748 333.167966 
L 182.814821 351.125512 
L 187.997895 347.065803 
L 193.180968 327.32567 
L 198.364042 307.585538 
L 203.547116 303.525828 
L 208.730189 321.483375 
L 213.913263 354.587258 
L 219.096337 386.643494 
L 224.27941 401.498358 
L 229.462484 392.400166 
L 234.645557 365.879377 
L 239.828631 337.876991 
L 245.011705 324.390944 
L 250.194778 332.120319 
L 255.377852 354.587258 
L 260.560926 376.00655 
L 265.743999 380.633242 
L 270.927073 362.108713 
L 276.110147 327.32567 
L 281.29322 292.542628 
L 286.476294 274.018099 
L 291.659367 278.644791 
L 296.842441 300.064083 
L 302.025515 322.531022 
L 307.208588 330.260397 
L 312.391662 316.77435 
L 317.574736 288.771964 
L 322.757809 262.251175 
L 327.940883 253.152983 
L 333.123957 268.007847 
L 338.30703 300.064083 
L 343.490104 333.167966 
L 348.673177 351.125512 
L 353.856251 347.065803 
L 359.039325 327.32567 
L 364.222398 307.585538 
L 369.405472 303.525828 
L 374.588546 321.483375 
L 379.771619 354.587258 
L 384.954693 386.643494 
L 390.137767 401.498358 
L 395.32084 392.400166 
L 400.503914 365.879377 
L 405.686987 337.876991 
L 410.870061 324.390944 
L 416.053135 332.120319 
L 421.236208 354.587258 
L 426.419282 376.00655 
L 431.602356 380.633242 
L 436.785429 362.108713 
L 441.968503 327.32567 
L 447.151576 292.542628 
L 452.33465 274.018099 
L 457.517724 278.644791 
L 462.700797 300.064083 
L 467.883871 322.531022 
L 473.066945 330.260397 
L 478.250018 316.77435 
L 483.433092 288.771964 
L 488.616166 262.251175 
L 493.799239 253.152983 
L 498.982313 268.007847 
L 504.165386 300.064083 
L 509.34846 333.167966 
L 514.531534 351.125512 
L 519.714607 347.065803 
L 524.897681 327.32567 
L 530.080755 307.585538 
L 535.263828 303.525828 
L 540.446902 321.483375 
L 545.629976 354.587258 
L 550.813049 386.643494 
L 555.996123 401.498358 
L 561.179196 392.400166 
L 566.36227 365.879377 
L 571.545344 337.876991 
L 576.728417 324.390944 
L 581.911491 332.120319 
L 587.094565 354.587258 
L 592.277638 376.00655 
L 597.460712 380.633242 
L 602.643786 362.108713 
" style="fill:none;stroke:#1f77b4;stroke-linecap:square;stroke-width:2;"/>
   </g>
   <g id="line2d_29">
    <path clip-path="url(#p2e5555e6c3)" d="M 89.519496 354.492017 
L 94.702569 375.618118 
L 99.885643 380.452333 
L 105.068717 362.067619 
L 110.25179 327.079977 
L 115.434864 292.822978 
L 120.617938 273.662928 
L 125.801011 278.785896 
L 130.984085 299.828617 
L 136.167158 323.46372 
L 141.350232 329.587305 
L 146.533306 314.914484 
L 151.716379 284.413255 
L 156.899453 262.353107 
L 162.082527 254.34411 
L 167.2656 268.918737 
L 172.448674 301.420208 
L 177.631748 334.611988 
L 182.814821 349.38948 
L 187.997895 348.62992 
L 193.180968 327.484901 
L 198.364042 307.798258 
L 203.547116 303.605843 
L 208.730189 321.093416 
L 213.913263 353.773719 
L 219.096337 386.646199 
L 224.27941 404.197346 
L 229.462484 392.633106 
L 234.645557 365.210898 
L 239.828631 338.439437 
L 245.011705 324.356561 
L 250.194778 332.065253 
L 255.377852 354.492453 
L 260.560926 375.619268 
L 265.743999 380.4496 
L 270.927073 362.065385 
L 276.110147 327.076565 
L 281.29322 292.822075 
L 286.476294 273.667973 
L 291.659367 278.788525 
L 296.842441 299.82803 
L 302.025515 323.466597 
L 307.208588 329.587171 
L 312.391662 314.909631 
L 317.574736 284.397351 
L 322.757809 262.350352 
L 327.940883 254.342197 
L 333.123957 268.920172 
L 338.30703 301.42014 
L 343.490104 334.617859 
L 348.673177 349.38912 
L 353.856251 348.637338 
L 359.039325 327.485874 
L 364.222398 307.796825 
L 369.405472 303.608218 
L 374.588546 321.092678 
L 379.771619 353.77039 
L 384.954693 386.645119 
L 390.137767 404.205017 
L 395.32084 392.637681 
L 400.503914 365.213059 
L 405.686987 338.439935 
L 410.870061 324.356553 
L 416.053135 332.062832 
L 421.236208 354.492895 
L 426.419282 375.620424 
L 431.602356 380.446858 
L 436.785429 362.063146 
L 441.968503 327.073149 
L 447.151576 292.821167 
L 452.33465 273.673044 
L 457.517724 278.79117 
L 462.700797 299.827455 
L 467.883871 323.469459 
L 473.066945 329.587032 
L 478.250018 314.90484 
L 483.433092 284.381544 
L 488.616166 262.347585 
L 493.799239 254.340244 
L 498.982313 268.921602 
L 504.165386 301.42006 
L 509.34846 334.623706 
L 514.531534 349.388761 
L 519.714607 348.644713 
L 524.897681 327.486849 
L 530.080755 307.795396 
L 535.263828 303.610587 
L 540.446902 321.091948 
L 545.629976 353.767062 
L 550.813049 386.644034 
L 555.996123 404.212642 
L 561.179196 392.642258 
L 566.36227 365.215231 
L 571.545344 338.440432 
L 576.728417 324.35654 
L 581.911491 332.060405 
L 587.094565 354.493341 
L 592.277638 375.621587 
L 597.460712 380.444107 
L 602.643786 362.0609 
" style="fill:none;stroke:#ff7f0e;stroke-linecap:square;stroke-width:2;"/>
   </g>
   <g id="patch_9">
    <path d="M 63.863281 411.765625 
L 63.863281 245.6 
" style="fill:none;stroke:#000000;stroke-linecap:square;stroke-linejoin:miter;stroke-width:0.8;"/>
   </g>
   <g id="patch_10">
    <path d="M 628.3 411.765625 
L 628.3 245.6 
" style="fill:none;stroke:#000000;stroke-linecap:square;stroke-linejoin:miter;stroke-width:0.8;"/>
   </g>
   <g id="patch_11">
    <path d="M 63.863281 411.765625 
L 628.3 411.765625 
" style="fill:none;stroke:#000000;stroke-linecap:square;stroke-linejoin:miter;stroke-width:0.8;"/>
   </g>
   <g id="patch_12">
    <path d="M 63.863281 245.6 
L 628.3 245.6 
" style="fill:none;stroke:#000000;stroke-linecap:square;stroke-linejoin:miter;stroke-width:0.8;"/>
   </g>
   <g id="legend_2">
    <g id="patch_13">
     <path d="M 558.1 302.864844 
L 617.8 302.864844 
Q 620.8 302.864844 620.8 299.864844 
L 620.8 256.1 
Q 620.8 253.1 617.8 253.1 
L 558.1 253.1 
Q 555.1 253.1 555.1 256.1 
L 555.1 299.864844 
Q 555.1 302.864844 558.1 302.864844 
z
" style="fill:#ffffff;opacity:0.8;stroke:#cccccc;stroke-linejoin:miter;"/>
    </g>
    <g id="line2d_30">
     <path d="M 561.1 265.247656 
L 591.1 265.247656 
" style="fill:none;stroke:#1f77b4;stroke-linecap:square;stroke-width:2;"/>
    </g>
    <g id="line2d_31"/>
    <g id="text_29">
     <!-- $I_d$ -->
     <g transform="translate(603.1 270.497656)scale(0.15 -0.15)">
      <use transform="translate(0 0.796875)" xlink:href="#STIXGeneral-Italic-1d610"/>
      <use transform="translate(40.099991 -12.792187)scale(0.7)" xlink:href="#STIXGeneral-Italic-1d625"/>
     </g>
    </g>
    <g id="line2d_32">
     <path d="M 561.1 287.264844 
L 591.1 287.264844 
" style="fill:none;stroke:#ff7f0e;stroke-linecap:square;stroke-width:2;"/>
    </g>
    <g id="line2d_33"/>
    <g id="text_30">
     <!-- $I_p$ -->
     <g transform="translate(603.1 292.514844)scale(0.15 -0.15)">
      <use transform="translate(0 0.796875)" xlink:href="#STIXGeneral-Italic-1d610"/>
      <use transform="translate(40.099991 -12.792187)scale(0.7)" xlink:href="#STIXGeneral-Italic-1d631"/>
     </g>
    </g>
   </g>
  </g>
 </g>
 <defs>
  <clipPath id="pd8fdb7565e">
   <rect height="166.165625" width="564.436719" x="63.863281" y="19.7"/>
  </clipPath>
  <clipPath id="p2e5555e6c3">
   <rect height="166.165625" width="564.436719" x="63.863281" y="245.6"/>
  </clipPath>
 </defs>
</svg>
